# Alias OBJ Model File
# Exported from SketchUp, (c) 2000-2012 Trimble Navigation Limited
# File units = inches

mtllib tunnel.mtl

g Mesh1 __ Model

usemtl FrontColor
v 41.4418 36.1875 -79.9591
vt 40.1788 0
vn 0 1 -0
v 41.4418 36.1875 -91.5841
vt 40.1788 11.625
v 40.7311 36.1875 -91.5841
vt 39.4681 11.625
v 40.7311 36.1875 -103.584
vt 39.4681 23.625
v 41.4418 36.1875 -103.584
vt 40.1788 23.625
v 41.4418 36.1875 -103.834
vt 40.1788 23.875
v 39.8755 36.1875 -103.731
vt 38.6125 23.7723
v 38.336 36.1875 -103.425
vt 37.073 23.4661
v 36.8496 36.1875 -102.921
vt 35.5866 22.9616
v 35.4418 36.1875 -102.226
vt 34.1788 22.2673
v 34.1367 36.1875 -101.354
vt 32.8737 21.3952
v 32.9565 36.1875 -100.319
vt 31.6936 20.3603
v 31.9216 36.1875 -99.1392
vt 30.6586 19.1801
v 31.0495 36.1875 -97.8341
vt 29.7865 17.875
v 30.3553 36.1875 -96.4263
vt 29.0923 16.4672
v 29.8507 36.1875 -94.9399
vt 28.5877 14.9808
v 29.5445 36.1875 -93.4004
vt 28.2815 13.4413
v 29.45 36.1875 -91.9591
vt 28.187 12
v 29.4418 36.1875 -91.9591
vt 28.1788 12
v 29.4418 36.1875 -79.9591
vt 28.1788 0
f 1/1/1 2/2/1 3/3/1 4/4/1 5/5/1 6/6/1 7/7/1 8/8/1 9/9/1 10/10/1 11/11/1 12/12/1 13/13/1 14/14/1 15/15/1 16/16/1 17/17/1 18/18/1 19/19/1 20/20/1 

vt -23.875 36.1875
vn -1 0 -0
vt -23.625 36.1875
v 41.4418 48.074 -103.584
vt -23.625 48.074
v 41.4418 48.074 -91.5841
vt -11.625 48.074
vt -11.625 36.1875
vt 0 36.1875
v 41.4418 48.1875 -79.9591
vt 0 48.1875
v 41.4418 48.1875 -103.834
vt -23.875 48.1875
f 6/21/2 5/22/2 21/23/2 22/24/2 2/25/2 1/26/2 23/27/2 24/28/2 

v 52.7311 48.074 -103.584
vt 51.4681 48.074
vn 0 0 1
vt 40.1788 48.074
vt 40.1788 36.1875
vt 39.4681 36.1875
v 40.7311 36.074 -103.584
vt 39.4681 36.074
v 52.7311 36.074 -103.584
vt 51.4681 36.074
f 25/29/3 21/30/3 5/31/3 4/32/3 26/33/3 27/34/3 

v 52.7311 48.074 -91.5841
vt -51.4681 11.625
vn 0 -1 -0
vt -40.1788 11.625
vt -40.1788 23.625
vt -51.4681 23.625
f 28/35/4 22/36/4 21/37/4 25/38/4 

v 40.7311 36.074 -91.5841
vt -39.4681 36.074
vn 0 0 -1
vt -39.4681 36.1875
vt -40.1788 36.1875
vt -40.1788 48.074
vt -51.4681 48.074
v 52.7311 36.074 -91.5841
vt -51.4681 36.074
f 29/39/5 3/40/5 2/41/5 22/42/5 28/43/5 30/44/5 

vt 23.625 36.074
vn 1 0 -0
vt 23.625 36.1875
vt 11.625 36.1875
vt 11.625 36.074
f 26/45/6 4/46/6 3/47/6 29/48/6 

vt 51.4681 23.625
vt 51.4681 11.625
f 27/49/1 26/4/1 29/3/1 30/50/1 

vt -11.625 36.074
v 52.7311 39.0559 -94.1949
vt -14.2359 39.0559
vt -23.625 36.074
f 30/51/2 31/52/2 27/53/2

v 52.7311 45.4975 -94.1949
vt -14.2359 45.4975
f 31/52/2 30/51/2 32/54/2

f 28/24/2 32/54/2 30/51/2

f 32/54/2 28/24/2 25/23/2

v 52.7311 45.4975 -100.637
vt -20.6775 45.4975
f 32/54/2 25/23/2 33/55/2

v 52.7311 39.0559 -100.637
vt -20.6775 39.0559
f 33/55/2 25/23/2 34/56/2

f 27/53/2 34/56/2 25/23/2

f 27/53/2 31/52/2 34/56/2

v 59.1261 39.0559 -100.637
vt 57.8631 20.6775
vt 51.4681 20.6775
vt 51.4681 14.2359
v 59.1261 39.0559 -94.1949
vt 57.8631 14.2359
f 35/57/1 34/58/1 31/59/1 36/60/1 

v 59.1261 45.4975 -100.637
vt 57.8631 45.4975
vt 51.4681 45.4975
vt 51.4681 39.0559
vt 57.8631 39.0559
f 37/61/3 33/62/3 34/63/3 35/64/3 

v 59.1261 45.4975 -94.1949
vt -57.8631 14.2359
vt -51.4681 14.2359
vt -51.4681 20.6775
vt -57.8631 20.6775
f 38/65/4 32/66/4 33/67/4 37/68/4 

vt -57.8631 39.0559
vt -51.4681 39.0559
vt -51.4681 45.4975
vt -57.8631 45.4975
f 36/69/5 31/70/5 32/71/5 38/72/5 

v 59.1261 42.5327 -94.4274
vt -14.4684 42.5327
f 38/54/2 39/73/2 36/52/2

v 59.1261 45.4177 -97.3124
vt -17.3534 45.4177
f 39/73/2 38/54/2 40/74/2

f 40/74/2 38/54/2 37/55/2

v 59.1261 42.5327 -100.197
vt -20.2384 42.5327
f 40/74/2 37/55/2 41/75/2

f 35/56/2 41/75/2 37/55/2

v 59.1261 39.6477 -97.3124
vt -17.3534 39.6477
f 35/56/2 42/76/2 41/75/2

f 36/52/2 42/76/2 35/56/2

f 42/76/2 36/52/2 39/73/2

v 63.0297 42.5327 -94.4274
vt -61.7667 19.8445
vn -8.29942e-15 0.707107 -0.707107
v 63.0297 42.501 -94.4591
vt -61.7667 19.7997
v 62.7476 42.501 -94.4591
vt -61.4846 19.7997
v 62.7476 39.6477 -97.3124
vt -61.4846 15.7645
vt -57.8631 15.7645
vt -57.8631 19.8445
f 43/77/7 44/78/7 45/79/7 46/80/7 42/81/7 39/82/7 

v 63.0297 42.5643 -94.4591
vt -14.5 42.5643
vt -14.5 42.501
f 43/73/2 47/83/2 44/84/2

vt -57.8631 44.3858
vn -1.59203e-15 -0.707107 -0.707107
v 62.7476 45.4177 -97.3124
vt -61.4846 44.3858
v 62.7476 42.5643 -94.4591
vt -61.4846 40.3506
vt -61.7667 40.3506
vt -61.7667 40.3058
vt -57.8631 40.3058
f 40/85/8 48/86/8 49/87/8 47/88/8 43/89/8 39/90/8 

vt 57.8631 15.7645
vn 4.86035e-15 -0.707107 0.707107
v 62.7476 42.5327 -100.197
vt 61.4846 15.7645
vt 61.4846 19.8445
vt 57.8631 19.8445
f 41/91/9 50/92/9 48/93/9 40/94/9 

vt 57.8631 40.3058
vn -6.94336e-16 0.707107 0.707107
vt 61.4846 40.3058
vt 61.4846 44.3858
vt 57.8631 44.3858
f 42/95/10 46/96/10 50/97/10 41/98/10 

v 62.7476 45.6007 -94.4591
vt 14.5 45.6007
vn 1 -4.01145e-16 2.77729e-16
vt 14.5 42.5643
vt 17.3534 45.4177
vt 20.2384 42.5327
vt 17.3534 39.6477
vt 14.5 42.501
v 62.7476 39.6007 -94.4591
vt 14.5 39.6007
v 62.7476 39.6007 -100.459
vt 20.5 39.6007
v 62.7476 45.6007 -100.459
vt 20.5 45.6007
f 51/99/11 49/100/11 48/101/11 50/102/11 46/103/11 45/104/11 52/105/11 53/106/11 54/107/11 

vt -61.4846 45.6007
v 74.0389 45.6007 -94.4591
vt -72.7759 45.6007
v 74.0389 39.9539 -94.4591
vt -72.7759 39.9539
v 74.054 39.9539 -94.4591
vt -72.7911 39.9539
v 74.054 39.6007 -94.4591
vt -72.7911 39.6007
vt -61.4846 39.6007
vt -61.4846 42.501
vt -61.7667 42.501
vt -61.7667 42.5643
vt -61.4846 42.5643
f 51/108/5 55/109/5 56/110/5 57/111/5 58/112/5 52/113/5 45/114/5 44/115/5 47/116/5 49/117/5 

v 81.5876 45.6007 -100.459
vt -80.3246 20.5
v 81.5876 45.6007 -100.347
vt -80.3246 20.3876
v 74.0389 45.6007 -100.347
vt -72.7759 20.3876
vt -72.7759 14.5
vt -61.4846 14.5
vt -61.4846 20.5
f 59/118/4 60/119/4 61/120/4 55/121/4 51/122/4 54/123/4 

v 81.5876 39.6007 -94.6765
vt -14.7174 39.6007
v 81.5876 39.9539 -94.6765
vt -14.7174 39.9539
v 81.5876 39.9539 -100.347
vt -20.3876 39.9539
vt -20.3876 45.6007
vt -20.5 45.6007
v 81.5876 39.6007 -100.459
vt -20.5 39.6007
f 62/124/2 63/125/2 64/126/2 60/127/2 59/128/2 65/129/2 

v 74.054 39.6007 -94.6765
v 74.054 39.9539 -94.6765
vt -80.3246 39.9539
vt -80.3246 39.6007
f 66/112/5 67/111/5 63/130/5 62/131/5 

vt -14.5 39.6007
vt -14.5 39.9539
f 58/132/2 57/133/2 67/125/2 66/124/2 

v 81.641 39.9539 -100.347
vt 80.378 20.3876
vt 80.3246 20.3876
vt 80.3246 14.7174
vt 72.7911 14.7174
vt 72.7911 14.5
vt 72.7759 14.5
v 74.0389 39.9539 -94.1052
vt 72.7759 14.1461
v 81.641 39.9539 -94.1052
vt 80.378 14.1461
f 68/134/1 64/135/1 63/136/1 67/137/1 57/138/1 56/139/1 69/140/1 70/141/1 

v 74.0389 64.9609 -100.347
vt 72.7759 64.9609
vn -4.63795e-16 -4.517e-16 1
vt 72.7759 45.6007
vt 80.3246 45.6007
vt 80.3246 39.9539
vt 80.378 39.9539
v 81.641 64.9609 -100.347
vt 80.378 64.9609
f 71/142/12 61/143/12 60/144/12 64/145/12 68/146/12 72/147/12 

vt 14.1461 39.9539
vt 14.5 39.9539
vt 20.3876 45.6007
vt 20.3876 64.9609
v 74.0389 64.9609 -94.1052
vt 14.1461 64.9609
f 69/148/6 56/149/6 55/99/6 61/150/6 71/151/6 73/152/6 

vt -72.7759 14.1461
vt -80.378 20.3876
v 81.641 64.9609 -94.1052
vt -80.378 14.1461
f 73/153/4 71/120/4 72/154/4 74/155/4 

vt -14.1461 39.9539
vt -14.1461 64.9609
vt -20.3876 64.9609
f 68/126/2 70/156/2 74/157/2 72/158/2 

vt -80.378 39.9539
v 81.4142 58.0301 -94.1052
vt -80.1512 58.0301
vt -80.378 64.9609
f 70/159/5 75/160/5 74/161/5

v 74.2937 58.0301 -94.1052
vt -73.0308 58.0301
f 75/160/5 70/159/5 76/162/5

f 69/110/5 76/162/5 70/159/5

vt -72.7759 64.9609
f 76/162/5 69/110/5 73/163/5

v 74.2937 64.9051 -94.1052
vt -73.0308 64.9051
f 76/162/5 73/163/5 77/164/5

v 81.4142 64.9051 -94.1052
vt -80.1512 64.9051
f 77/164/5 73/163/5 78/165/5

f 74/161/5 78/165/5 73/163/5

f 74/161/5 75/160/5 78/165/5

v 81.4142 64.9051 -83.445
vt -3.48594 64.9051
vt -14.1461 64.9051
vt -14.1461 58.0301
v 81.4142 58.0301 -83.445
vt -3.48594 58.0301
f 79/166/2 78/167/2 75/168/2 80/169/2 

v 74.2937 64.9051 -83.445
vt -73.0308 3.48594
vn -2.82438e-18 -1 -6.90827e-16
vt -73.0308 14.1461
vt -80.1512 14.1461
vt -80.1512 3.48594
v 81.1912 64.9051 -83.445
vt -79.9282 3.48594
v 81.1912 64.9051 -87.5627
vt -79.9282 7.60368
v 74.488 64.9051 -87.5627
vt -73.225 7.60368
v 74.488 64.9051 -83.445
vt -73.225 3.48594
f 81/170/13 77/171/13 78/172/13 79/173/13 82/174/13 83/175/13 84/176/13 85/177/13 

v 74.2937 58.0301 -83.445
vt 3.48594 58.0301
vt 14.1461 58.0301
vt 14.1461 64.9051
vt 3.48594 64.9051
f 86/178/6 76/179/6 77/180/6 81/181/6 

vt 80.1512 3.48594
vt 80.1512 14.1461
vt 73.0308 14.1461
vt 73.0308 3.48594
f 80/182/1 75/183/1 76/184/1 86/185/1 

vt -73.225 64.9051
v 74.488 58.1289 -83.445
vt -73.225 58.1289
v 81.1912 58.1289 -83.445
vt -79.9282 58.1289
vt -79.9282 64.9051
f 81/164/5 85/186/5 87/187/5 88/188/5 82/189/5 79/165/5 80/160/5 86/162/5 

v 74.488 58.1289 -79.9591
vt 0 58.1289
vt 3.48594 58.1289
vt 7.60368 64.9051
v 74.488 64.9689 -87.5627
vt 7.60368 64.9689
v 74.488 64.9689 -79.9591
vt 0 64.9689
f 89/190/6 87/191/6 85/181/6 84/192/6 90/193/6 91/194/6 

v 81.1912 58.1289 -79.9591
vt 79.9282 0
vt 79.9282 3.48594
vt 73.225 3.48594
vt 73.225 0
f 92/195/1 88/196/1 87/197/1 89/198/1 

v 81.1912 64.9689 -87.5627
vt -7.60368 64.9689
vn -1 6.67349e-16 3.56698e-16
vt -7.60368 64.9051
vt -3.48594 58.1289
vt 2.85103e-14 58.1289
v 81.1912 64.9689 -79.9591
vt 2.85103e-14 64.9689
f 93/199/14 83/200/14 82/166/14 88/201/14 92/202/14 94/203/14 

vt 73.225 64.9689
vt 73.225 64.9051
vt 79.9282 64.9051
vt 79.9282 64.9689
f 90/204/3 84/205/3 83/206/3 93/207/3 

vt -73.225 0
vt -79.9282 0
f 91/208/4 90/176/4 93/175/4 94/209/4 

usemtl _Color_M00_1
v 104.263 68.625 -79.9591
vt 103 68.625
f 94/207/3 95/210/3 91/204/3

vt 79.9282 58.1289
f 92/211/3 95/210/3 94/207/3

f 1/31/3 95/210/3 92/211/3

v 1.26296 0 -79.9591
vt 0 0
f 96/212/3 95/210/3 1/31/3

v 104.263 0 -79.9591
vt 103 0
f 95/210/3 96/212/3 97/213/3

v 1.26296 0 -121.647
vt 0 41.6875
v 104.263 0 -121.647
vt -103 41.6875
vt -103 0
f 96/212/4 98/214/4 99/215/4 97/216/4 

vt -41.6875 0
v 1.26296 68.625 -79.9591
vt 0 68.625
v 1.26296 68.625 -121.647
vt -41.6875 68.625
f 98/217/2 96/212/2 100/218/2 101/219/2 

vt 28.1788 36.1875
f 96/212/3 20/220/3 100/218/3

f 20/220/3 96/212/3 1/31/3

v 29.4418 48.1875 -79.9591
vt 28.1788 48.1875
f 100/218/3 20/220/3 102/221/3

usemtl FrontColor
vt 12 36.1875
v 29.4418 48.1875 -91.9591
vt 12 48.1875
f 102/27/6 20/26/6 19/222/6 103/223/6 

vt 28.187 36.1875
v 29.45 48.1875 -91.9591
vt 28.187 48.1875
f 19/220/3 18/224/3 104/225/3 103/221/3 

v 29.5445 48.1875 -93.4004
vt 15.2622 48.1875
vn 0.991445 0 0.130526
vt 13.8178 48.1875
vn 0.997859 0 0.0654031
vt 13.8178 36.1875
vt 15.2622 36.1875
f 105/226/15 104/227/16 18/228/16 17/229/15 

vt -40.1788 0
vt -28.1788 0
vt -28.1788 12
vt -28.187 12
vt -28.2815 13.4413
v 29.8507 48.1875 -94.9399
vt -28.5877 14.9808
v 30.3553 48.1875 -96.4263
vt -29.0923 16.4672
v 31.0495 48.1875 -97.8341
vt -29.7865 17.875
v 31.9216 48.1875 -99.1392
vt -30.6586 19.1801
v 32.9565 48.1875 -100.319
vt -31.6936 20.3603
v 34.1367 48.1875 -101.354
vt -32.8737 21.3952
v 35.4418 48.1875 -102.226
vt -34.1788 22.2673
v 36.8496 48.1875 -102.921
vt -35.5866 22.9616
v 38.336 48.1875 -103.425
vt -37.073 23.4661
v 39.8755 48.1875 -103.731
vt -38.6125 23.7723
vt -40.1788 23.875
f 23/230/4 102/231/4 103/232/4 104/233/4 105/234/4 106/235/4 107/236/4 108/237/4 109/238/4 110/239/4 111/240/4 112/241/4 113/242/4 114/243/4 115/244/4 24/245/4 

usemtl _Color_M00_1
vt 40.1788 48.1875
f 23/246/3 92/211/3 102/221/3

f 1/31/3 92/211/3 23/246/3

vt 73.225 58.1289
f 89/247/3 102/221/3 92/211/3

f 100/218/3 102/221/3 89/247/3

f 100/218/3 89/247/3 91/204/3

f 100/218/3 91/204/3 95/210/3

v 104.263 68.625 -121.647
vt 103 41.6875
f 101/214/1 100/212/1 95/213/1 116/248/1 

vt 41.6875 0
vt 41.6875 68.625
f 97/212/6 99/249/6 116/250/6 95/218/6 

vt -103 68.625
f 99/216/5 98/212/5 101/218/5 116/251/5 

usemtl FrontColor
vt 18.7005 36.1875
vt 20.2702 36.1875
vn 0.965926 0 0.258819
vt 20.2702 48.1875
vt 18.7005 48.1875
f 17/252/15 16/253/17 106/254/17 105/255/15 

vt 23.375 36.1875
vt 24.9447 36.1875
vn 0.92388 0 0.382683
vt 24.9447 48.1875
vt 23.375 48.1875
f 16/256/17 15/257/18 107/258/18 106/259/17 

vt 27.6362 36.1875
vt 29.2058 36.1875
vn 0.866025 0 0.5
vt 29.2058 48.1875
vt 27.6362 48.1875
f 15/260/18 14/261/19 108/262/19 107/263/18 

vt 31.411 36.1875
vt 32.9807 36.1875
vn 0.793353 0 0.608761
vt 32.9807 48.1875
vt 31.411 48.1875
f 14/264/19 13/265/20 109/266/20 108/267/19 

vt 34.635 36.1875
vt 36.2047 36.1875
vn 0.707107 0 0.707107
vt 36.2047 48.1875
vt 34.635 48.1875
f 13/268/20 12/269/21 110/270/21 109/271/20 

vt 37.2529 36.1875
vt 38.8226 36.1875
vn 0.608761 0 0.793353
vt 38.8226 48.1875
vt 37.2529 48.1875
f 12/272/21 11/273/22 111/274/22 110/275/21 

vt 39.22 36.1875
vt 40.7897 36.1875
vn 0.5 0 0.866025
vt 40.7897 48.1875
vt 39.22 48.1875
f 11/276/22 10/277/23 112/278/23 111/279/22 

vt 40.5026 36.1875
vt 42.0723 36.1875
vn 0.382683 0 0.92388
vt 42.0723 48.1875
vt 40.5026 48.1875
f 10/280/23 9/281/24 113/282/24 112/283/23 

vt 41.0788 36.1875
vt 42.6485 36.1875
vn 0.258819 0 0.965926
vt 42.6485 48.1875
vt 41.0788 48.1875
f 9/284/24 8/285/25 114/286/25 113/287/24 

vt 40.9387 36.1875
vt 42.5084 36.1875
vn 0.130526 0 0.991445
vt 42.5084 48.1875
vt 40.9387 48.1875
f 8/288/25 7/289/26 115/290/26 114/291/25 

vt 40.0846 36.1875
vt 41.6543 36.1875
vn 0.0654031 0 0.997859
vt 41.6543 48.1875
vt 40.0846 48.1875
f 7/292/26 6/293/27 24/294/27 115/295/26 

vt 61.4846 14.5
vt 80.3246 20.5
vt 61.4846 20.5
f 52/296/1 58/138/1 66/137/1 62/136/1 65/297/1 53/298/1 

vt 61.4846 39.6007
vt 80.3246 39.6007
vt 61.4846 45.6007
f 53/299/3 65/300/3 59/144/3 54/301/3 

