# Alias OBJ Model File
# Exported from SketchUp, (c) 2000-2012 Trimble Navigation Limited
# File units = inches

mtllib Wall with hole6.mtl

g Mesh1 Model

usemtl FrontColor
v 133.491 33.0773 -55.8045
vt 133.491 -28.023
vn 4.80741e-17 -0.866025 0.5
v 133.491 33.5376 -55.1157
vt 133.491 -27.1945
vn 4.404e-17 -0.793353 0.608761
v 127.158 33.5376 -55.1157
vt 127.158 -27.1945
v 127.158 33.0773 -55.8045
vt 127.158 -28.023
f 1/1/1 2/2/2 3/3/2 4/4/1 

v 133.491 38.5382 -58.9713
vt 58.9713 38.5382
vn 1 -1.05322e-15 2.40692e-15
v 133.491 38.5624 -58.9713
vt 58.9713 38.5624
v 133.491 38.5624 -52.6377
vt 52.6377 38.5624
v 133.491 37.7357 -52.6919
vt 52.6919 37.7357
v 133.491 36.9231 -52.8535
vt 52.8535 36.9231
v 133.491 36.1386 -53.1198
vt 53.1198 36.1386
v 133.491 35.3956 -53.4862
vt 53.4862 35.3956
v 133.491 34.7068 -53.9465
vt 53.9465 34.7068
v 133.491 34.0839 -54.4928
vt 54.4928 34.0839
vt 55.1157 33.5376
vt 55.8045 33.0773
v 133.491 32.7109 -56.5475
vt 56.5475 32.7109
v 133.491 32.4446 -57.332
vt 57.332 32.4446
v 133.491 32.283 -58.1446
vt 58.1446 32.283
v 133.491 32.2288 -58.9713
vt 58.9713 32.2288
v 133.491 32.5382 -58.9713
vt 58.9713 32.5382
v 133.491 32.5382 -58.8791
vt 58.8791 32.5382
v 133.491 38.5382 -58.8791
vt 58.8791 38.5382
f 5/5/3 6/6/3 7/7/3 8/8/3 9/9/3 10/10/3 11/11/3 12/12/3 13/13/3 2/14/3 1/15/3 14/16/3 15/17/3 16/18/3 17/19/3 18/20/3 19/21/3 20/22/3 

v 127.158 38.5382 -58.9713
vt -127.158 38.5382
vn -1.12186e-15 8.81036e-13 -1
v 127.158 38.5624 -58.9713
vt -127.158 38.5624
vt -133.491 38.5624
vt -133.491 38.5382
f 21/23/4 22/24/4 6/25/4 5/26/4 

v 127.158 38.5624 -58.9242
vt -58.9242 38.5624
vn -1 -5.87357e-13 3.01909e-13
vt -58.9713 38.5624
vt -58.9713 38.5382
v 127.158 38.5382 -58.9242
vt -58.9242 38.5382
f 23/27/5 22/28/5 21/29/5 24/30/5 

v 133.389 38.5624 -52.6377
vt 133.389 52.6377
vn -1.67536e-15 1 1.11224e-15
vt 133.491 52.6377
vt 133.491 58.9713
vt 127.158 58.9713
vt 127.158 58.9242
v 133.389 38.5624 -58.9242
vt 133.389 58.9242
f 25/31/6 7/32/6 6/33/6 22/34/6 23/35/6 26/36/6 

v 127.158 38.25 -52.6582
vt 127.158 34.7241
vn -5.19269e-16 -0.0654031 0.997859
v 127.158 37.7357 -52.6919
vt 127.158 34.2087
vn -2.54765e-16 -0.130526 0.991445
vt 133.491 34.2087
vt 133.491 35.0372
vt 133.389 35.0372
v 133.389 38.25 -52.6582
vt 133.389 34.7241
f 27/37/7 28/38/8 8/39/8 7/40/7 25/41/7 29/42/7 

v 127.158 38.25 -58.8791
vt -58.8791 38.25
vn -1 2.38476e-15 -4.67295e-15
v 127.158 32.5382 -58.8791
vt -58.8791 32.5382
v 127.158 32.5382 -58.9713
vt -58.9713 32.5382
v 127.158 32.2288 -58.9713
vt -58.9713 32.2288
v 127.158 32.283 -58.1446
vt -58.1446 32.283
v 127.158 32.4446 -57.332
vt -57.332 32.4446
v 127.158 32.7109 -56.5475
vt -56.5475 32.7109
vt -55.8045 33.0773
vt -55.1157 33.5376
v 127.158 34.0839 -54.4928
vt -54.4928 34.0839
v 127.158 34.7068 -53.9465
vt -53.9465 34.7068
v 127.158 35.3956 -53.4862
vt -53.4862 35.3956
v 127.158 36.1386 -53.1198
vt -53.1198 36.1386
v 127.158 36.9231 -52.8535
vt -52.8535 36.9231
vt -52.6919 37.7357
vt -52.6582 38.25
f 30/43/9 31/44/9 32/45/9 33/46/9 34/47/9 35/48/9 36/49/9 4/50/9 3/51/9 37/52/9 38/53/9 39/54/9 40/55/9 41/56/9 28/57/9 27/58/9 

v 127.055 38.5382 -58.8791
vt 127.055 38.5382
vn 0 0 1
v 114.788 38.5382 -58.8791
vt 114.788 38.5382
v 114.788 35.5018 -58.8791
vt 114.788 35.5018
v 115.07 35.5018 -58.8791
vt 115.07 35.5018
v 115.07 35.4385 -58.8791
vt 115.07 35.4385
v 114.788 35.4385 -58.8791
vt 114.788 35.4385
v 114.788 32.5382 -58.8791
vt 114.788 32.5382
vt 127.158 32.5382
vt 127.158 38.25
v 127.055 38.25 -58.8791
vt 127.055 38.25
f 42/59/10 43/60/10 44/61/10 45/62/10 46/63/10 47/64/10 48/65/10 31/66/10 30/67/10 49/68/10 

vn 0 1 -0
vt 133.491 58.8791
v 133.628 38.5382 -58.8791
vt 133.628 58.8791
v 133.628 38.5382 -64.8791
vt 133.628 64.8791
v 114.788 38.5382 -64.8791
vt 114.788 64.8791
vt 114.788 58.8791
vt 127.055 58.8791
v 127.055 38.5382 -58.9242
vt 127.055 58.9242
f 24/35/11 21/34/11 5/33/11 20/69/11 50/70/11 51/71/11 52/72/11 43/73/11 42/74/11 53/75/11 

vt 133.491 32.5382
v 133.628 32.5382 -58.8791
vt 133.628 32.5382
vt 133.628 38.5382
vt 133.491 38.5382
f 19/76/10 54/77/10 50/78/10 20/79/10 

vt -127.158 58.8791
vn 0 -1 -0
vt -114.788 58.8791
v 114.788 32.5382 -64.8791
vt -114.788 64.8791
v 133.628 32.5382 -64.8791
vt -133.628 64.8791
vt -133.628 58.8791
vt -133.491 58.8791
vt -133.491 58.9713
vt -127.158 58.9713
f 31/80/12 48/81/12 55/82/12 56/83/12 54/84/12 19/85/12 18/86/12 32/87/12 

vt -58.8791 35.5018
vn -1 4.01145e-16 -2.77729e-16
vt -58.8791 38.5382
vt -64.8791 38.5382
vt -64.8791 32.5382
vt -58.8791 35.4385
v 114.788 32.5852 -61.7325
vt -61.7325 32.5852
v 114.788 35.4702 -64.6175
vt -64.6175 35.4702
v 114.788 38.3552 -61.7325
vt -61.7325 38.3552
f 44/88/13 43/89/13 52/90/13 55/91/13 48/44/13 47/92/13 57/93/13 58/94/13 59/95/13 

vt -133.628 32.5382
vn 0 0 -1
vt -114.788 32.5382
vt -114.788 38.5382
vt -133.628 38.5382
f 56/96/14 55/97/14 52/98/14 51/99/14 

vn 1 0 -0
vt 64.8791 32.5382
vt 64.8791 38.5382
f 54/21/15 56/100/15 51/101/15 50/22/15 

vt 115.07 -16.575
vn 8.29942e-15 -0.707107 0.707107
v 115.07 35.4702 -58.8475
vt 115.07 -16.5303
v 111.167 35.4702 -58.8475
vt 111.167 -16.5303
v 111.167 32.5852 -61.7325
vt 111.167 -20.6103
vt 114.788 -20.6103
vt 114.788 -16.575
f 46/102/16 60/103/16 61/104/16 62/105/16 57/106/16 47/107/16 

vt 58.8791 35.5018
vt 58.8475 35.4702
vt 58.8791 35.4385
f 45/108/15 60/109/15 46/110/15

vt 114.788 70.7727
vn 1.59203e-15 0.707107 0.707107
v 111.167 38.3552 -61.7325
vt 111.167 70.7727
vt 111.167 66.6927
vt 115.07 66.6927
vt 115.07 66.7374
vt 114.788 66.7374
f 59/111/17 63/112/17 61/113/17 60/114/17 45/115/17 44/116/17 

vt -114.788 -20.6103
vn -4.86035e-15 0.707107 -0.707107
v 111.167 35.4702 -64.6175
vt -111.167 -20.6103
vt -111.167 -16.5303
vt -114.788 -16.5303
f 58/117/18 64/118/18 63/119/18 59/120/18 

vt -114.788 66.6927
vn 6.94336e-16 -0.707107 -0.707107
vt -111.167 66.6927
vt -111.167 70.7727
vt -114.788 70.7727
f 57/121/19 62/122/19 64/123/19 58/124/19 

vt 61.7325 32.5852
v 111.167 31.9934 -65.0566
vt 65.0566 31.9934
vt 64.6175 35.4702
f 62/125/15 65/126/15 64/127/15

v 111.167 31.9934 -58.615
vt 58.615 31.9934
f 62/125/15 66/128/15 65/126/15

f 61/109/15 66/128/15 62/125/15

v 111.167 38.435 -58.615
vt 58.615 38.435
f 66/128/15 61/109/15 67/129/15

vt 61.7325 38.3552
f 63/130/15 67/129/15 61/109/15

v 111.167 38.435 -65.0566
vt 65.0566 38.435
f 67/129/15 63/130/15 68/131/15

f 68/131/15 63/130/15 64/127/15

f 68/131/15 64/127/15 65/126/15

v 104.772 38.435 -65.0566
vt -104.772 38.435
vt -111.167 38.435
vt -111.167 31.9934
v 104.772 31.9934 -65.0566
vt -104.772 31.9934
f 69/132/14 68/133/14 65/134/14 70/135/14 

v 104.772 38.435 -58.615
vt 104.772 58.615
vt 111.167 58.615
vt 111.167 65.0566
vt 104.772 65.0566
f 71/136/11 67/137/11 68/138/11 69/139/11 

v 104.772 31.9934 -58.615
vt 104.772 31.9934
vt 111.167 31.9934
vt 111.167 38.435
vt 104.772 38.435
f 72/140/10 66/141/10 67/142/10 71/143/10 

vt -104.772 65.0566
vt -111.167 65.0566
vt -111.167 58.615
vt -104.772 58.615
f 70/144/12 65/145/12 66/146/12 72/147/12 

v 104.772 29.0115 -68.0041
vt 68.0041 29.0115
f 72/128/15 73/148/15 70/126/15

v 104.772 29.0115 -56.0041
vt 56.0041 29.0115
f 72/128/15 74/149/15 73/148/15

v 104.772 41.0115 -56.0041
vt 56.0041 41.0115
f 74/149/15 72/128/15 75/150/15

f 71/129/15 75/150/15 72/128/15

v 104.772 41.0115 -68.0041
vt 68.0041 41.0115
f 75/150/15 71/129/15 76/151/15

f 76/151/15 71/129/15 69/131/15

f 76/151/15 69/131/15 73/148/15

f 70/126/15 73/148/15 69/131/15

v 93.4825 41.0115 -68.0041
vt -93.4825 41.0115
vt -104.772 41.0115
vt -104.772 29.0115
v 92.7718 29.0115 -68.0041
vt -92.7718 29.0115
v 92.7718 29.125 -68.0041
vt -92.7718 29.125
v 93.4825 29.125 -68.0041
vt -93.4825 29.125
f 77/152/14 76/153/14 73/154/14 78/155/14 79/156/14 80/157/14 

v 93.4825 41.0115 -56.0041
vt 93.4825 56.0041
vt 104.772 56.0041
vt 104.772 68.0041
vt 93.4825 68.0041
f 81/158/11 75/159/11 76/160/11 77/161/11 

v 92.7718 29.125 -56.0041
vt 92.7718 29.125
v 92.7718 29.0115 -56.0041
vt 92.7718 29.0115
vt 104.772 29.0115
vt 104.772 41.0115
vt 93.4825 41.0115
v 93.4825 29.125 -56.0041
vt 93.4825 29.125
f 82/162/10 83/163/10 74/164/10 75/165/10 81/166/10 84/167/10 

vt -68.0041 29.125
vn -1 0 -0
vt -68.0041 29.0115
vt -56.0041 29.0115
vt -56.0041 29.125
f 79/168/20 78/169/20 83/170/20 82/171/20 

vt -92.7718 68.0041
vt -104.772 68.0041
vt -104.772 56.0041
vt -92.7718 56.0041
f 78/172/12 73/173/12 74/174/12 83/175/12 

vt -93.4825 56.0041
v 93.4825 29.125 -44.3791
vt -93.4825 44.3791
v 81.4825 29.125 -44.3791
vt -81.4825 44.3791
v 81.4825 29.125 -56.3791
vt -81.4825 56.3791
v 81.4907 29.125 -56.3791
vt -81.4907 56.3791
v 81.5852 29.125 -57.8204
vt -81.5852 57.8204
v 81.8914 29.125 -59.3599
vt -81.8914 59.3599
v 82.3959 29.125 -60.8463
vt -82.3959 60.8463
v 83.0902 29.125 -62.2541
vt -83.0902 62.2541
v 83.9623 29.125 -63.5593
vt -83.9623 63.5593
v 84.9972 29.125 -64.7394
vt -84.9972 64.7394
v 86.1774 29.125 -65.7744
vt -86.1774 65.7744
v 87.4825 29.125 -66.6464
vt -87.4825 66.6464
v 88.8903 29.125 -67.3407
vt -88.8903 67.3407
v 90.3767 29.125 -67.8452
vt -90.3767 67.8452
v 91.9162 29.125 -68.1515
vt -91.9162 68.1515
v 93.4825 29.125 -68.2541
vt -93.4825 68.2541
vt -93.4825 68.0041
f 84/176/12 85/177/12 86/178/12 87/179/12 88/180/12 89/181/12 90/182/12 91/183/12 92/184/12 93/185/12 94/186/12 95/187/12 96/188/12 97/189/12 98/190/12 99/191/12 100/192/12 80/193/12 79/172/12 82/175/12 

vt 68.0041 29.125
vt 68.2541 29.125
v 93.4825 41.125 -68.2541
vt 68.2541 41.125
v 93.4825 41.125 -44.3791
vt 44.3791 41.125
vt 44.3791 29.125
vt 56.0041 29.125
f 80/194/15 100/195/15 101/196/15 102/197/15 85/198/15 84/199/15 81/150/15 77/151/15 

vt -97.7464 29.125
vn -0.0654031 0 -0.997859
vt -96.1767 29.125
vn -0.130526 0 -0.991445
v 91.9162 41.125 -68.1515
vt -96.1767 41.125
vt -97.7464 41.125
f 100/200/21 99/201/22 103/202/22 101/203/21 

vt -103.446 29.125
vt -101.876 29.125
vn -0.258819 0 -0.965926
v 90.3767 41.125 -67.8452
vt -101.876 41.125
vt -103.446 41.125
f 99/204/22 98/205/23 104/206/23 103/207/22 

vt -107.389 29.125
vt -105.819 29.125
vn -0.382683 0 -0.92388
v 88.8903 41.125 -67.3407
vt -105.819 41.125
vt -107.389 41.125
f 98/208/23 97/209/24 105/210/24 104/211/23 

vt -109.507 29.125
vt -107.938 29.125
vn -0.5 0 -0.866025
v 87.4825 41.125 -66.6464
vt -107.938 41.125
vt -109.507 41.125
f 97/212/24 96/213/25 106/214/25 105/215/24 

vt -109.766 29.125
vt -108.196 29.125
vn -0.608761 0 -0.793353
v 86.1774 41.125 -65.7744
vt -108.196 41.125
vt -109.766 41.125
f 96/216/25 95/217/26 107/218/26 106/219/25 

vt -108.16 29.125
vt -106.59 29.125
vn -0.707107 0 -0.707107
v 84.9972 41.125 -64.7394
vt -106.59 41.125
vt -108.16 41.125
f 95/220/26 94/221/27 108/222/27 107/223/26 

vt -104.716 29.125
vt -103.147 29.125
vn -0.793353 0 -0.608761
v 83.9623 41.125 -63.5593
vt -103.147 41.125
vt -104.716 41.125
f 94/224/27 93/225/28 109/226/28 108/227/27 

vt -99.4945 29.125
vt -97.9248 29.125
vn -0.866025 0 -0.5
v 83.0902 41.125 -62.2541
vt -97.9248 41.125
vt -99.4945 41.125
f 93/228/28 92/229/29 110/230/29 109/231/28 

vt -92.5839 29.125
vt -91.0142 29.125
vn -0.92388 0 -0.382683
v 82.3959 41.125 -60.8463
vt -91.0142 41.125
vt -92.5839 41.125
f 92/232/29 91/233/30 111/234/30 110/235/29 

vt -84.1025 29.125
vt -82.5328 29.125
vn -0.965926 0 -0.258819
v 81.8914 41.125 -59.3599
vt -82.5328 41.125
vt -84.1025 41.125
f 91/236/30 90/237/31 112/238/31 111/239/30 

vt -74.1956 29.125
vt -72.6259 29.125
vn -0.991445 0 -0.130526
v 81.5852 41.125 -57.8204
vt -72.6259 41.125
vt -74.1956 41.125
f 90/240/31 89/241/32 113/242/32 112/243/31 

v 81.4907 41.125 -56.3791
vt -61.5882 41.125
vn -0.997859 0 -0.0654031
vt -63.0326 41.125
vt -63.0326 29.125
vt -61.5882 29.125
f 114/244/33 113/245/32 89/246/32 88/247/33 

v 81.4825 41.125 -44.3791
vt 81.4825 44.3791
vt 93.4825 44.3791
vt 93.4825 68.2541
vt 91.9162 68.1515
vt 90.3767 67.8452
vt 88.8903 67.3407
vt 87.4825 66.6464
vt 86.1774 65.7744
vt 84.9972 64.7394
vt 83.9623 63.5593
vt 83.0902 62.2541
vt 82.3959 60.8463
vt 81.8914 59.3599
vt 81.5852 57.8204
vt 81.4907 56.3791
v 81.4825 41.125 -56.3791
vt 81.4825 56.3791
f 115/248/11 102/249/11 101/250/11 103/251/11 104/252/11 105/253/11 106/254/11 107/255/11 108/256/11 109/257/11 110/258/11 111/259/11 112/260/11 113/261/11 114/262/11 116/263/11 

vt -81.4907 29.125
vt -81.4825 29.125
vt -81.4825 41.125
vt -81.4907 41.125
f 88/264/14 87/265/14 116/266/14 114/267/14 

vt -44.3791 29.125
vt -44.3791 41.125
vt -56.3791 41.125
vt -56.3791 29.125
f 86/268/20 115/269/20 116/270/20 87/271/20 

vt -133.491 32.5382
vn -1.12186e-15 -6.88943e-14 -1
vt -133.491 32.2288
vt -127.158 32.2288
vt -127.158 32.5382
f 18/272/34 17/273/34 33/274/34 32/275/34 

vt 133.491 -56.7372
vn 5.53923e-17 -0.997859 0.0654031
vt 133.491 -55.9087
vn 5.50362e-17 -0.991445 0.130526
vt 127.158 -55.9087
vt 127.158 -56.7372
f 17/276/35 16/277/36 34/278/36 33/279/35 

vt 133.491 -50.7293
vt 133.491 -49.9008
vn 5.36197e-17 -0.965926 0.258819
vt 127.158 -49.9008
vt 127.158 -50.7293
f 16/280/36 15/281/37 35/282/37 34/283/36 

vt 133.491 -43.8605
vt 133.491 -43.032
vn 5.12856e-17 -0.92388 0.382683
vt 127.158 -43.032
vt 127.158 -43.8605
f 15/284/37 14/285/38 36/286/38 35/287/37 

vt 133.491 -36.2483
vt 133.491 -35.4198
vt 127.158 -35.4198
vt 127.158 -36.2483
f 14/288/38 1/289/1 4/290/1 36/291/38 

v 127.055 50.9375 -58.9242
vt -58.9242 50.9375
v 127.055 38.25 -52.621
vt -52.621 38.25
v 127.055 50.9375 -52.621
vt -52.621 50.9375
f 117/292/20 53/30/20 42/89/20 49/43/20 118/293/20 119/294/20 

v 133.389 50.9375 -58.9242
vt -133.389 50.9375
vt -133.389 38.5624
vt -127.055 38.5382
vt -127.055 50.9375
f 120/295/14 26/296/14 23/24/14 24/23/14 53/297/14 117/298/14 

v 133.389 50.9375 -52.621
vt 52.621 50.9375
v 133.389 38.25 -52.621
vt 52.621 38.25
vt 52.6582 38.25
vt 58.9242 38.5624
vt 58.9242 50.9375
f 121/299/15 122/300/15 29/301/15 25/7/15 26/302/15 120/303/15 

vt 127.055 50.9375
vt 133.389 38.25
vt 133.389 50.9375
f 119/304/10 118/68/10 122/305/10 121/306/10 

vt -133.389 52.6582
vt -133.389 52.621
vt -127.055 52.621
vt -127.055 58.8791
vt -127.158 52.6582
f 29/307/12 122/308/12 118/309/12 49/310/12 30/80/12 27/311/12 

v 133.444 50.9375 -52.0508
vt -133.444 52.0508
vn 4.23161e-13 -1 -7.19731e-14
f 123/312/39 119/309/39 121/308/39

v 126.484 50.9375 -52.0508
vt -126.484 52.0508
f 124/313/39 119/309/39 123/312/39

vt -127.055 58.9242
f 119/309/39 124/313/39 117/314/39

v 126.484 50.9375 -59.0108
vt -126.484 59.0108
f 125/315/39 117/314/39 124/313/39

v 133.444 50.9375 -59.0108
vt -133.444 59.0108
f 117/314/39 125/315/39 126/316/39

vt -126.484 46.969
vn -2.76842e-14 0.0654031 -0.997859
v 126.484 51.846 -58.9512
vt -126.484 47.8794
vn -5.52498e-14 0.130526 -0.991445
v 133.444 51.846 -58.9512
vt -133.444 47.8794
vt -133.444 46.969
f 125/317/40 127/318/41 128/319/41 126/320/40 

v 126.484 55.1745 -57.5725
vt -57.5725 55.1745
vn -1 -4.23285e-13 -3.06289e-28
v 126.484 54.4175 -58.0783
vt -58.0783 54.4175
v 126.484 53.601 -58.481
vt -58.481 53.601
v 126.484 52.7389 -58.7736
vt -58.7736 52.7389
vt -58.9512 51.846
vt -59.0108 50.9375
vt -52.0508 50.9375
v 126.484 57.8975 -52.0508
vt -52.0508 57.8975
v 126.484 57.838 -52.9592
vt -52.9592 57.838
v 126.484 57.6603 -53.8521
vt -53.8521 57.6603
v 126.484 57.3677 -54.7142
vt -54.7142 57.3677
v 126.484 56.965 -55.5308
vt -55.5308 56.965
v 126.484 56.4592 -56.2877
vt -56.2877 56.4592
v 126.484 55.859 -56.9722
vt -56.9722 55.859
f 129/321/42 130/322/42 131/323/42 132/324/42 127/325/42 125/326/42 124/327/42 133/328/42 134/329/42 135/330/42 136/331/42 137/332/42 138/333/42 139/334/42 

vt -126.484 12.9799
vn -2.11642e-13 0.5 -0.866025
vt -126.484 13.8903
vn -2.57679e-13 0.608761 -0.793353
v 133.444 55.1745 -57.5725
vt -133.444 13.8903
v 133.444 54.4175 -58.0783
vt -133.444 12.9799
f 130/335/43 129/336/44 140/337/44 141/338/43 

vt -126.484 3.52219
vt -126.484 4.4326
vn -2.99308e-13 0.707107 -0.707107
v 133.444 55.859 -56.9722
vt -133.444 4.4326
vt -133.444 3.52219
f 129/339/44 139/340/45 142/341/45 140/342/44 

vt -126.484 -6.00361
vt -126.484 -5.0932
vn -3.35814e-13 0.793353 -0.608761
v 133.444 56.4592 -56.2877
vt -133.444 -5.0932
vt -133.444 -6.00361
f 139/343/45 138/344/46 143/345/46 142/346/45 

vt -126.484 -15.4345
vt -126.484 -14.5241
vn -3.66575e-13 0.866025 -0.5
v 133.444 56.965 -55.5308
vt -133.444 -14.5241
vt -133.444 -15.4345
f 138/347/46 137/348/47 144/349/47 143/350/46 

vt -126.484 -24.609
vt -126.484 -23.6986
vn -3.91064e-13 0.92388 -0.382683
v 133.444 57.3677 -54.7142
vt -133.444 -23.6986
vt -133.444 -24.609
f 137/351/47 136/352/48 145/353/48 144/354/47 

vt -126.484 -33.3703
vt -126.484 -32.4599
vn -4.08862e-13 0.965926 -0.258819
v 133.444 57.6603 -53.8521
vt -133.444 -32.4599
vt -133.444 -33.3703
f 136/355/48 135/356/49 146/357/49 145/358/48 

vt -126.484 -41.5684
vt -126.484 -40.658
vn -4.19912e-13 0.991445 -0.130526
v 133.444 57.838 -52.9592
vt -133.444 -40.658
vt -133.444 -41.5684
f 135/359/49 134/360/50 147/361/50 146/362/49 

v 133.232 57.8975 -52.0508
vt -133.232 -48.1526
vn -4.22875e-13 0.997859 -0.0654031
v 133.444 57.8975 -52.0508
vt -133.444 -48.1526
vt -133.444 -49.063
vt -126.484 -49.063
vt -126.484 -48.1526
v 126.529 57.8975 -52.0508
vt -126.529 -48.1526
v 126.529 57.8965 -52.0666
vt -126.529 -48.1685
v 133.232 57.8965 -52.0666
vt -133.232 -48.1685
f 148/363/51 149/364/51 147/365/50 134/366/50 133/367/51 150/368/51 151/369/51 152/370/51 

vt 126.529 57.8975
vn -5.24692e-16 -7.16124e-14 1
vt 126.484 57.8975
vt 126.484 50.9375
vt 133.444 50.9375
vt 133.444 57.8975
vt 133.232 57.8975
v 133.232 51.0664 -52.0508
vt 133.232 51.0664
v 126.529 51.0664 -52.0508
vt 126.529 51.0664
f 150/371/52 133/372/52 124/373/52 123/374/52 149/375/52 148/376/52 153/377/52 154/378/52 

vt 58.0783 54.4175
vn 1 4.23285e-13 3.06289e-28
vt 57.5725 55.1745
vt 56.9722 55.859
vt 56.2877 56.4592
vt 55.5308 56.965
vt 54.7142 57.3677
vt 53.8521 57.6603
vt 52.9592 57.838
vt 52.0508 57.8975
vt 52.0508 50.9375
vt 59.0108 50.9375
vt 58.9512 51.846
v 133.444 52.7389 -58.7736
vt 58.7736 52.7389
v 133.444 53.601 -58.481
vt 58.481 53.601
f 141/379/53 140/380/53 142/381/53 143/382/53 144/383/53 145/384/53 146/385/53 147/386/53 149/387/53 123/388/53 126/389/53 128/390/53 155/391/53 156/392/53 

f 123/312/39 121/308/39 126/316/39

vt -133.389 58.9242
f 120/393/39 126/316/39 121/308/39

f 117/314/39 126/316/39 120/393/39

vt -126.484 39.3489
vt -126.484 40.2594
vn -1.09554e-13 0.258819 -0.965926
vt -133.444 40.2594
vt -133.444 39.3489
f 127/394/41 132/395/54 155/396/54 128/397/41 

vt -126.484 31.0479
vt -126.484 31.9583
vn -1.61984e-13 0.382683 -0.92388
vt -133.444 31.9583
vt -133.444 31.0479
f 132/398/54 131/399/55 156/400/55 155/401/54 

vt -126.484 22.2078
vt -126.484 23.1182
vt -133.444 23.1182
vt -133.444 22.2078
f 131/402/55 130/403/43 141/404/43 156/405/55 

vt 52.0666 57.8965
vn 1 -3.31662e-15 2.96218e-15
v 133.232 57.9064 -52.0666
vt 52.0666 57.9064
v 133.232 57.9064 -44.3791
vt 44.3791 57.9064
v 133.232 51.0664 -44.3791
vt 44.3791 51.0664
vt 52.0508 51.0664
f 152/406/56 157/407/56 158/408/56 159/409/56 153/410/56 148/387/56 

vt -126.529 57.8965
vn -3.03705e-25 1.43257e-12 -1
v 126.529 57.9064 -52.0666
vt -126.529 57.9064
vt -133.232 57.9064
vt -133.232 57.8965
f 151/411/57 160/412/57 157/413/57 152/414/57 

vt -52.0508 51.0664
v 126.529 51.0664 -44.3791
vt -44.3791 51.0664
v 126.529 57.9064 -44.3791
vt -44.3791 57.9064
vt -52.0666 57.9064
vt -52.0666 57.8965
f 154/415/20 161/416/20 162/417/20 160/418/20 151/419/20 150/328/20 

vt -133.232 52.0508
vt -133.232 44.3791
vt -126.529 44.3791
vt -126.529 52.0508
f 153/420/12 159/421/12 161/422/12 154/423/12 

vt 133.232 52.0666
vt 126.529 52.0666
vt 126.529 44.3791
vt 133.232 44.3791
f 157/424/11 160/425/11 162/426/11 158/427/11 

vt 133.491 -19.3253
vt 133.491 -18.4968
vn 3.92523e-17 -0.707107 0.707107
vt 127.158 -18.4968
vt 127.158 -19.3253
f 2/428/2 13/429/58 37/430/58 3/431/2 

vt 133.491 -10.304
vt 133.491 -9.4755
vn 3.3793e-17 -0.608761 0.793353
vt 127.158 -9.4755
vt 127.158 -10.304
f 13/432/58 12/433/59 38/434/59 37/435/58 

vt 133.491 -1.11347
vt 133.491 -0.284997
vn 2.77556e-17 -0.5 0.866025
vt 127.158 -0.284997
vt 127.158 -1.11347
f 12/436/59 11/437/60 39/438/60 38/439/59 

vt 133.491 8.08899
vt 133.491 8.91747
vn 2.12432e-17 -0.382683 0.92388
vt 127.158 8.91747
vt 127.158 8.08899
f 11/440/60 10/441/61 40/442/61 39/443/60 

vt 133.491 17.146
vt 133.491 17.9744
vn 1.43673e-17 -0.258819 0.965926
vt 127.158 17.9744
vt 127.158 17.146
f 10/444/61 9/445/62 41/446/62 40/447/61 

vt 133.491 25.9025
vt 133.491 26.7309
vt 127.158 26.7309
vt 127.158 25.9025
f 9/448/62 8/449/8 28/450/8 41/451/62 

