# Alias OBJ Model File
# Exported from SketchUp, (c) 2000-2012 Trimble Navigation Limited
# File units = inches

mtllib Wall with hole5.mtl

g Mesh1 __ Model

usemtl FrontColor
v 80.085 45.3125 -62.8668
vt 80.085 8.24185
vn 0 1 -0
v 80.085 45.3125 -62.9041
vt 80.085 8.27906
v 73.8539 45.3125 -62.9041
vt 73.8539 8.27906
v 73.8539 45.3125 -69.125
vt 73.8539 14.5
v 73.751 45.3125 -69.125
vt 73.751 14.5
v 73.751 45.3125 -62.8668
vt 73.751 8.24185
f 1/1/1 2/2/1 3/3/1 4/4/1 5/5/1 6/6/1 

vt -8.24185 45.3125
vn -1 0 -0
v 80.085 58 -62.8668
vt -8.24185 58
v 80.085 58 -69.1701
vt -14.5451 58
v 80.085 45.6249 -69.1701
vt -14.5451 45.6249
v 80.085 45.6249 -62.8836
vt -8.25858 45.6249
vt -8.27906 45.3125
f 1/7/2 7/8/2 8/9/2 9/10/2 10/11/2 2/12/2 

vt -73.751 45.3125
vn 0 0 -1
v 73.751 58 -62.8668
vt -73.751 58
vt -80.085 58
vt -80.085 45.3125
f 6/13/3 11/14/3 7/15/3 1/16/3 

v 73.751 45.6007 -69.1701
vt 14.5451 45.6007
vn 1 0 -0
v 73.751 58 -69.1701
vt 14.5451 58
vt 8.24185 58
vt 8.24185 45.3125
vt 14.5 45.3125
v 73.751 45.6007 -69.125
vt 14.5 45.6007
f 12/17/4 13/18/4 11/19/4 6/20/4 5/21/4 14/22/4 

vt 80.085 45.6249
vn 0 0 1
vt 80.085 58
vt 73.751 58
vt 73.751 45.6007
v 73.8539 45.6007 -69.1701
vt 73.8539 45.6007
v 73.8539 45.6249 -69.1701
vt 73.8539 45.6249
f 9/23/5 8/24/5 13/25/5 12/26/5 15/27/5 16/28/5 

v 80.1405 58 -69.2566
vt 80.1405 14.6316
vn -4.23161e-13 1 7.19731e-14
vt 73.751 14.5451
vt 80.085 14.5451
f 17/29/6 13/30/6 8/31/6

v 73.1805 58 -69.2566
vt 73.1805 14.6316
f 18/32/6 13/30/6 17/29/6

f 13/30/6 18/32/6 11/6/6

v 73.1805 58 -62.2966
vt 73.1805 7.67164
f 19/33/6 11/6/6 18/32/6

v 80.1405 58 -62.2966
vt 80.1405 7.67164
f 11/6/6 19/33/6 20/34/6

v 73.1805 64.96 -62.2966
vt -73.1805 64.96
vn 5.24692e-16 7.16124e-14 -1
v 73.225 64.96 -62.2966
vt -73.225 64.96
v 73.225 58.1289 -62.2966
vt -73.225 58.1289
v 79.9282 58.1289 -62.2966
vt -79.9282 58.1289
v 79.9282 64.96 -62.2966
vt -79.9282 64.96
v 80.1405 64.96 -62.2966
vt -80.1405 64.96
vt -80.1405 58
vt -73.1805 58
f 21/35/7 22/36/7 23/37/7 24/38/7 25/39/7 26/40/7 20/41/7 19/42/7 

vt 80.1405 -3.40662
vn 4.22875e-13 -0.997859 0.0654031
vt 79.9282 -3.40662
v 79.9282 64.959 -62.3125
vt 79.9282 -3.42252
v 73.225 64.959 -62.3125
vt 73.225 -3.42252
vt 73.225 -3.40662
vt 73.1805 -3.40662
v 73.1805 64.9005 -63.2051
vt 73.1805 -4.31704
vn 4.19912e-13 -0.991445 0.130526
v 80.1405 64.9005 -63.2051
vt 80.1405 -4.31704
f 26/43/8 25/44/8 27/45/8 28/46/8 22/47/8 21/48/8 29/49/9 30/50/9 

v 79.9282 64.9689 -62.3125
vt -7.6875 64.9689
vn -1 8.29155e-16 -7.40544e-16
vt -7.6875 64.959
vt -7.67164 64.96
vt -7.67164 58.1289
v 79.9282 58.1289 -54.625
vt -5.91903e-14 58.1289
v 79.9282 64.9689 -54.625
vt -5.91903e-14 64.9689
f 31/51/10 27/52/10 25/53/10 24/54/10 32/55/10 33/56/10 

v 73.225 64.9689 -62.3125
vt 73.225 64.9689
vn 3.03705e-25 -1.43257e-12 1
vt 73.225 64.959
vt 79.9282 64.959
vt 79.9282 64.9689
f 34/57/11 28/58/11 27/59/11 31/60/11 

v 73.225 58.1289 -54.625
vt 0 58.1289
vt 7.67164 58.1289
vt 7.67164 64.96
vt 7.6875 64.959
vt 7.6875 64.9689
v 73.225 64.9689 -54.625
vt 0 64.9689
f 35/61/4 23/62/4 22/63/4 28/64/4 34/65/4 36/66/4 

vt 79.9282 0
vt 79.9282 7.67164
vt 73.225 7.67164
vt 73.225 0
f 32/67/1 24/68/1 23/69/1 35/70/1 

usemtl _Color_M00_1
vt 73.225 58.1289
v 28.1788 48.1875 -54.625
vt 28.1788 48.1875
vt 79.9282 58.1289
f 35/71/5 37/72/5 32/73/5

v 0 68.625 -54.625
vt 0 68.625
f 38/74/5 37/72/5 35/71/5

v 28.1788 36.1875 -54.625
vt 28.1788 36.1875
f 38/74/5 39/75/5 37/72/5

v 0 0 -54.625
vt 0 0
f 40/76/5 39/75/5 38/74/5

v 40.1788 36.1875 -54.625
vt 40.1788 36.1875
f 39/75/5 40/76/5 41/77/5

v 103 68.625 -54.625
vt 103 68.625
f 40/76/5 42/78/5 41/77/5

v 103 0 -54.625
vt 103 0
f 42/78/5 40/76/5 43/79/5

vn 0 -1 -0
v 0 0 -96.3125
vt 0 41.6875
v 103 0 -96.3125
vt -103 41.6875
vt -103 0
f 40/76/12 44/80/12 45/81/12 43/82/12 

vt -41.6875 0
v 0 68.625 -96.3125
vt -41.6875 68.625
f 44/83/2 40/76/2 38/74/2 46/84/2 

v 103 68.625 -96.3125
vt 103 41.6875
f 46/80/1 38/76/1 42/79/1 47/85/1 

f 38/74/5 36/57/5 42/78/5

f 38/74/5 35/71/5 36/57/5

f 33/60/5 42/78/5 36/57/5

f 32/73/5 42/78/5 33/60/5

f 41/77/5 42/78/5 32/73/5

v 40.1788 48.1875 -54.625
vt 40.1788 48.1875
f 41/77/5 32/73/5 48/86/5

f 48/86/5 32/73/5 37/72/5

usemtl FrontColor
vt -40.1788 0
vt -28.1788 0
v 28.1788 48.1875 -66.625
vt -28.1788 12
v 28.187 48.1875 -66.625
vt -28.187 12
v 28.2815 48.1875 -68.0663
vt -28.2815 13.4413
v 28.5877 48.1875 -69.6058
vt -28.5877 14.9808
v 29.0923 48.1875 -71.0922
vt -29.0923 16.4672
v 29.7865 48.1875 -72.5
vt -29.7865 17.875
v 30.6586 48.1875 -73.8051
vt -30.6586 19.1801
v 31.6936 48.1875 -74.9853
vt -31.6936 20.3603
v 32.8737 48.1875 -76.0202
vt -32.8737 21.3952
v 34.1788 48.1875 -76.8923
vt -34.1788 22.2673
v 35.5866 48.1875 -77.5866
vt -35.5866 22.9616
v 37.073 48.1875 -78.0911
vt -37.073 23.4661
v 38.6125 48.1875 -78.3973
vt -38.6125 23.7723
v 40.1788 48.1875 -78.5
vt -40.1788 23.875
f 48/87/12 37/88/12 49/89/12 50/90/12 51/91/12 52/92/12 53/93/12 54/94/12 55/95/12 56/96/12 57/97/12 58/98/12 59/99/12 60/100/12 61/101/12 62/102/12 

vt 0 48.1875
vt 0 36.1875
v 28.1788 36.1875 -66.625
vt 12 36.1875
vt 12 48.1875
f 37/103/4 39/104/4 63/105/4 49/106/4 

vt 40.1788 0
v 40.1788 36.1875 -66.25
vt 40.1788 11.625
v 39.4681 36.1875 -66.25
vt 39.4681 11.625
v 39.4681 36.1875 -78.25
vt 39.4681 23.625
v 40.1788 36.1875 -78.25
vt 40.1788 23.625
v 40.1788 36.1875 -78.5
vt 40.1788 23.875
v 38.6125 36.1875 -78.3973
vt 38.6125 23.7723
v 37.073 36.1875 -78.0911
vt 37.073 23.4661
v 35.5866 36.1875 -77.5866
vt 35.5866 22.9616
v 34.1788 36.1875 -76.8923
vt 34.1788 22.2673
v 32.8737 36.1875 -76.0202
vt 32.8737 21.3952
v 31.6936 36.1875 -74.9853
vt 31.6936 20.3603
v 30.6586 36.1875 -73.8051
vt 30.6586 19.1801
v 29.7865 36.1875 -72.5
vt 29.7865 17.875
v 29.0923 36.1875 -71.0922
vt 29.0923 16.4672
v 28.5877 36.1875 -69.6058
vt 28.5877 14.9808
v 28.2815 36.1875 -68.0663
vt 28.2815 13.4413
v 28.187 36.1875 -66.625
vt 28.187 12
vt 28.1788 12
vt 28.1788 0
f 41/107/1 64/108/1 65/109/1 66/110/1 67/111/1 68/112/1 69/113/1 70/114/1 71/115/1 72/116/1 73/117/1 74/118/1 75/119/1 76/120/1 77/121/1 78/122/1 79/123/1 80/124/1 63/125/1 39/126/1 

vt -23.875 36.1875
vt -23.625 36.1875
v 40.1788 48.074 -78.25
vt -23.625 48.074
v 40.1788 48.074 -66.25
vt -11.625 48.074
vt -11.625 36.1875
vt -23.875 48.1875
f 68/127/2 67/128/2 81/129/2 82/130/2 64/131/2 41/104/2 48/103/2 62/132/2 

v 51.4681 48.074 -78.25
vt 51.4681 48.074
vt 40.1788 48.074
vt 39.4681 36.1875
v 39.4681 36.074 -78.25
vt 39.4681 36.074
v 51.4681 36.074 -78.25
vt 51.4681 36.074
f 83/133/5 81/134/5 67/77/5 66/135/5 84/136/5 85/137/5 

v 51.4681 48.074 -66.25
vt -51.4681 11.625
vt -40.1788 11.625
vt -40.1788 23.625
vt -51.4681 23.625
f 86/138/12 82/139/12 81/140/12 83/141/12 

v 39.4681 36.074 -66.25
vt -39.4681 36.074
vt -39.4681 36.1875
vt -40.1788 36.1875
vt -40.1788 48.074
vt -51.4681 48.074
v 51.4681 36.074 -66.25
vt -51.4681 36.074
f 87/142/3 65/143/3 64/144/3 82/145/3 86/146/3 88/147/3 

vt 23.625 36.074
vt 23.625 36.1875
vt 11.625 36.1875
vt 11.625 36.074
f 84/148/4 66/149/4 65/150/4 87/151/4 

vt 51.4681 23.625
vt 51.4681 11.625
f 85/152/1 84/110/1 87/109/1 88/153/1 

vt -11.625 36.074
v 51.4681 39.0559 -68.8609
vt -14.2359 39.0559
vt -23.625 36.074
f 88/154/2 89/155/2 85/156/2

v 51.4681 45.4975 -68.8609
vt -14.2359 45.4975
f 89/155/2 88/154/2 90/157/2

f 86/130/2 90/157/2 88/154/2

f 90/157/2 86/130/2 83/129/2

v 51.4681 45.4975 -75.3025
vt -20.6775 45.4975
f 90/157/2 83/129/2 91/158/2

v 51.4681 39.0559 -75.3025
vt -20.6775 39.0559
f 91/158/2 83/129/2 92/159/2

f 85/156/2 92/159/2 83/129/2

f 85/156/2 89/155/2 92/159/2

v 57.8631 39.0559 -75.3025
vt 57.8631 20.6775
vt 51.4681 20.6775
vt 51.4681 14.2359
v 57.8631 39.0559 -68.8609
vt 57.8631 14.2359
f 93/160/1 92/161/1 89/162/1 94/163/1 

v 57.8631 45.4975 -75.3025
vt 57.8631 45.4975
vt 51.4681 45.4975
vt 51.4681 39.0559
vt 57.8631 39.0559
f 95/164/5 91/165/5 92/166/5 93/167/5 

v 57.8631 45.4975 -68.8609
vt -57.8631 14.2359
vt -51.4681 14.2359
vt -51.4681 20.6775
vt -57.8631 20.6775
f 96/168/12 90/169/12 91/170/12 95/171/12 

vt -57.8631 39.0559
vt -51.4681 39.0559
vt -51.4681 45.4975
vt -57.8631 45.4975
f 94/172/3 89/173/3 90/174/3 96/175/3 

v 57.8631 42.5327 -69.0934
vt -14.4684 42.5327
f 96/157/2 97/176/2 94/155/2

v 57.8631 45.4177 -71.9784
vt -17.3534 45.4177
f 97/176/2 96/157/2 98/177/2

f 98/177/2 96/157/2 95/158/2

v 57.8631 42.5327 -74.8634
vt -20.2384 42.5327
f 98/177/2 95/158/2 99/178/2

f 93/159/2 99/178/2 95/158/2

v 57.8631 39.6477 -71.9784
vt -17.3534 39.6477
f 93/159/2 100/179/2 99/178/2

f 94/155/2 100/179/2 93/159/2

f 100/179/2 94/155/2 97/176/2

v 61.7667 42.5327 -69.0934
vt -61.7667 19.8445
vn -8.29942e-15 0.707107 -0.707107
v 61.7667 42.501 -69.125
vt -61.7667 19.7997
v 61.4846 42.501 -69.125
vt -61.4846 19.7997
v 61.4846 39.6477 -71.9784
vt -61.4846 15.7645
vt -57.8631 15.7645
vt -57.8631 19.8445
f 101/180/13 102/181/13 103/182/13 104/183/13 100/184/13 97/185/13 

v 61.7667 42.5643 -69.125
vt -14.5 42.5643
vt -14.5 42.501
f 101/176/2 105/186/2 102/187/2

vt -57.8631 44.3858
vn -1.59203e-15 -0.707107 -0.707107
v 61.4846 45.4177 -71.9784
vt -61.4846 44.3858
v 61.4846 42.5643 -69.125
vt -61.4846 40.3506
vt -61.7667 40.3506
vt -61.7667 40.3058
vt -57.8631 40.3058
f 98/188/14 106/189/14 107/190/14 105/191/14 101/192/14 97/193/14 

vt 57.8631 15.7645
vn 4.86035e-15 -0.707107 0.707107
v 61.4846 42.5327 -74.8634
vt 61.4846 15.7645
vt 61.4846 19.8445
vt 57.8631 19.8445
f 99/194/15 108/195/15 106/196/15 98/197/15 

vt 57.8631 40.3058
vn -6.94336e-16 0.707107 0.707107
vt 61.4846 40.3058
vt 61.4846 44.3858
vt 57.8631 44.3858
f 100/198/16 104/199/16 108/200/16 99/201/16 

v 61.4846 45.6007 -69.125
vn 1 -4.01145e-16 2.77729e-16
vt 14.5 42.5643
vt 17.3534 45.4177
vt 20.2384 42.5327
vt 17.3534 39.6477
vt 14.5 42.501
v 61.4846 39.6007 -69.125
vt 14.5 39.6007
v 61.4846 39.6007 -75.125
vt 20.5 39.6007
v 61.4846 45.6007 -75.125
vt 20.5 45.6007
f 109/22/17 107/202/17 106/203/17 108/204/17 104/205/17 103/206/17 110/207/17 111/208/17 112/209/17 

vt -61.4846 45.6007
vt -73.751 45.6007
vt -73.8539 45.3125
v 73.8539 39.6007 -69.125
vt -73.8539 39.6007
vt -61.4846 39.6007
vt -61.4846 42.501
vt -61.7667 42.501
vt -61.7667 42.5643
vt -61.4846 42.5643
f 109/210/3 14/211/3 5/13/3 4/212/3 113/213/3 110/214/3 103/215/3 102/216/3 105/217/3 107/218/3 

v 73.8539 45.6007 -69.2172
vt -73.8539 14.5922
vt -73.8539 14.5451
vt -73.751 14.5451
vt -73.751 14.5
vt -61.4846 14.5
vt -61.4846 20.5
v 80.3246 45.6007 -75.125
vt -80.3246 20.5
v 80.3246 45.6007 -69.125
vt -80.3246 14.5
v 80.1875 45.6007 -69.125
vt -80.1875 14.5
v 80.1875 45.6007 -69.2172
vt -80.1875 14.5922
f 114/219/12 15/220/12 12/221/12 14/222/12 109/223/12 112/224/12 115/225/12 116/226/12 117/227/12 118/228/12 

v 73.8539 45.6249 -69.2172
vt 14.5922 45.6249
vn 1 5.87357e-13 -3.01909e-13
vt 14.5451 45.6249
vt 14.5922 45.6007
f 119/229/18 16/230/18 15/17/18 114/231/18 

v 80.1875 45.6249 -62.8836
vt -80.1875 8.25858
vn 1.67536e-15 -1 -1.11224e-15
vt -80.085 8.25858
vt -80.085 14.5451
v 80.1875 45.6249 -69.2172
f 120/232/19 10/233/19 9/234/19 16/220/19 119/219/19 121/228/19 

v 73.8539 44.7982 -62.9378
vt -73.8539 44.1586
vn 2.54765e-16 0.130526 -0.991445
vt -73.8539 44.674
vn 5.19269e-16 0.0654031 -0.997859
vt -80.085 44.674
vt -80.085 44.9871
vt -80.1875 44.9871
v 80.1875 44.7982 -62.9378
vt -80.1875 44.1586
f 122/235/20 3/236/21 2/237/21 10/238/21 120/239/21 123/240/20 

vn 1 -2.38476e-15 4.67295e-15
vt 8.27906 45.3125
vt 8.31277 44.7982
v 73.8539 43.9856 -63.0994
vt 8.4744 43.9856
v 73.8539 43.2011 -63.3657
vt 8.7407 43.2011
v 73.8539 42.4581 -63.7321
vt 9.10713 42.4581
v 73.8539 41.7693 -64.1924
vt 9.5674 41.7693
v 73.8539 41.1464 -64.7387
vt 10.1137 41.1464
v 73.8539 40.6001 -65.3615
vt 10.7365 40.6001
v 73.8539 40.1398 -66.0504
vt 11.4254 40.1398
v 73.8539 39.7734 -66.7934
vt 12.1684 39.7734
v 73.8539 39.5071 -67.5779
vt 12.9529 39.5071
v 73.8539 39.3455 -68.3905
vt 13.7655 39.3455
v 73.8539 39.2913 -69.2172
vt 14.5922 39.2913
v 73.8539 39.6007 -69.2172
vt 14.5922 39.6007
f 113/207/22 4/21/22 3/241/22 122/242/22 124/243/22 125/244/22 126/245/22 127/246/22 128/247/22 129/248/22 130/249/22 131/250/22 132/251/22 133/252/22 134/253/22 135/254/22 

vt -80.1875 42.3157
v 80.1875 43.9856 -63.0994
vt -80.1875 41.4872
vn -1.43673e-17 0.258819 -0.965926
vt -73.8539 41.4872
vt -73.8539 42.3157
f 123/255/20 136/256/23 124/257/23 122/258/20 

vt -14.5922 45.6249
vn -1 1.05322e-15 -2.40692e-15
vt -14.5922 45.6007
vt -14.5 45.6007
v 80.1875 39.6007 -69.125
vt -14.5 39.6007
v 80.1875 39.6007 -69.2172
vt -14.5922 39.6007
v 80.1875 39.2913 -69.2172
vt -14.5922 39.2913
v 80.1875 39.3455 -68.3905
vt -13.7655 39.3455
v 80.1875 39.5071 -67.5779
vt -12.9529 39.5071
v 80.1875 39.7734 -66.7934
vt -12.1684 39.7734
v 80.1875 40.1398 -66.0504
vt -11.4254 40.1398
v 80.1875 40.6001 -65.3615
vt -10.7365 40.6001
v 80.1875 41.1464 -64.7387
vt -10.1137 41.1464
v 80.1875 41.7693 -64.1924
vt -9.5674 41.7693
v 80.1875 42.4581 -63.7321
vt -9.10713 42.4581
v 80.1875 43.2011 -63.3657
vt -8.7407 43.2011
vt -8.4744 43.9856
vt -8.31277 44.7982
f 121/259/24 118/260/24 117/261/24 137/262/24 138/263/24 139/264/24 140/265/24 141/266/24 142/267/24 143/268/24 144/269/24 145/270/24 146/271/24 147/272/24 148/273/24 136/274/24 123/275/24 120/11/24 

vn 1.12186e-15 -8.81036e-13 1
vt 80.1875 45.6007
vt 80.1875 45.6249
f 119/28/25 114/27/25 118/276/25 121/277/25 

v 80.3246 39.6007 -69.125
vt -80.3246 39.6007
vt -80.1875 39.6007
vt -80.1875 45.6007
vt -80.3246 45.6007
f 149/278/3 137/279/3 117/280/3 116/281/3 

vt 61.4846 14.5
vt 73.8539 14.5922
vt 80.1875 14.5922
vt 80.1875 14.5
vt 80.3246 14.5
v 80.3246 39.6007 -75.125
vt 80.3246 20.5
vt 61.4846 20.5
f 110/282/1 113/4/1 135/283/1 138/284/1 137/285/1 149/286/1 150/287/1 111/288/1 

vt 80.1875 39.2913
vn 1.12186e-15 6.88943e-14 1
vt 80.1875 39.6007
vt 73.8539 39.6007
vt 73.8539 39.2913
f 139/289/26 138/290/26 135/291/26 134/292/26 

vt -80.1875 -11.1627
vn -5.50362e-17 0.991445 -0.130526
vt -80.1875 -11.9912
vn -5.53923e-17 0.997859 -0.0654031
vt -73.8539 -11.9912
vt -73.8539 -11.1627
f 140/293/27 139/294/28 134/295/28 133/296/27 

vt -80.1875 -4.99659
vn -5.36197e-17 0.965926 -0.258819
vt -80.1875 -5.82506
vt -73.8539 -5.82506
vt -73.8539 -4.99659
f 141/297/29 140/298/27 133/299/27 132/300/29 

vt -80.1875 1.2621
vn -5.12856e-17 0.92388 -0.382683
vt -80.1875 0.433628
vt -73.8539 0.433628
vt -73.8539 1.2621
f 142/301/30 141/302/29 132/303/29 131/304/30 

vt -80.1875 7.50628
vn -4.80741e-17 0.866025 -0.5
vt -80.1875 6.67781
vt -73.8539 6.67781
vt -73.8539 7.50628
f 143/305/31 142/306/30 131/307/30 130/308/31 

vt -80.1875 13.6291
vn -4.404e-17 0.793353 -0.608761
vt -80.1875 12.8006
vt -73.8539 12.8006
vt -73.8539 13.6291
f 144/309/32 143/310/31 130/311/31 129/312/32 

vt -80.1875 19.5258
vn -3.92523e-17 0.707107 -0.707107
vt -80.1875 18.6974
vt -73.8539 18.6974
vt -73.8539 19.5258
f 145/313/33 144/314/32 129/315/32 128/316/33 

vt -80.1875 25.0956
vn -3.3793e-17 0.608761 -0.793353
vt -80.1875 24.2671
vt -73.8539 24.2671
vt -73.8539 25.0956
f 146/317/34 145/318/33 128/319/33 127/320/34 

vt -80.1875 30.243
vn -2.77556e-17 0.5 -0.866025
vt -80.1875 29.4145
vt -73.8539 29.4145
vt -73.8539 30.243
f 147/321/35 146/322/34 127/323/34 126/324/35 

vt -80.1875 34.88
vn -2.12432e-17 0.382683 -0.92388
vt -80.1875 34.0515
vt -73.8539 34.0515
vt -73.8539 34.88
f 148/325/36 147/326/35 126/327/35 125/328/36 

vt -80.1875 38.9273
vt -80.1875 38.0989
vt -73.8539 38.0989
vt -73.8539 38.9273
f 136/329/23 148/330/36 125/331/36 124/332/23 

vt -20.5 39.6007
vt -20.5 45.6007
f 150/333/2 149/262/2 116/261/2 115/334/2 

vt 61.4846 39.6007
vt 80.3246 39.6007
vt 80.3246 45.6007
vt 61.4846 45.6007
f 111/335/5 150/336/5 115/337/5 112/338/5 

vt 40.0846 36.1875
vn 0.130526 0 0.991445
vt 41.6543 36.1875
vn 0.0654031 0 0.997859
vt 41.6543 48.1875
vt 40.0846 48.1875
f 69/339/37 68/340/38 62/341/38 61/342/37 

vt 40.9387 36.1875
vn 0.258819 0 0.965926
vt 42.5084 36.1875
vt 42.5084 48.1875
vt 40.9387 48.1875
f 70/343/39 69/344/37 61/345/37 60/346/39 

vt 41.0788 36.1875
vn 0.382683 0 0.92388
vt 42.6485 36.1875
vt 42.6485 48.1875
vt 41.0788 48.1875
f 71/347/40 70/348/39 60/349/39 59/350/40 

vt 40.5026 36.1875
vn 0.5 0 0.866025
vt 42.0723 36.1875
vt 42.0723 48.1875
vt 40.5026 48.1875
f 72/351/41 71/352/40 59/353/40 58/354/41 

vt 39.22 36.1875
vn 0.608761 0 0.793353
vt 40.7897 36.1875
vt 40.7897 48.1875
vt 39.22 48.1875
f 73/355/42 72/356/41 58/357/41 57/358/42 

vt 37.2529 36.1875
vn 0.707107 0 0.707107
vt 38.8226 36.1875
vt 38.8226 48.1875
vt 37.2529 48.1875
f 74/359/43 73/360/42 57/361/42 56/362/43 

vt 34.635 36.1875
vn 0.793353 0 0.608761
vt 36.2047 36.1875
vt 36.2047 48.1875
vt 34.635 48.1875
f 75/363/44 74/364/43 56/365/43 55/366/44 

vt 31.411 36.1875
vn 0.866025 0 0.5
vt 32.9807 36.1875
vt 32.9807 48.1875
vt 31.411 48.1875
f 76/367/45 75/368/44 55/369/44 54/370/45 

vt 27.6362 36.1875
vn 0.92388 0 0.382683
vt 29.2058 36.1875
vt 29.2058 48.1875
vt 27.6362 48.1875
f 77/371/46 76/372/45 54/373/45 53/374/46 

vt 23.375 36.1875
vn 0.965926 0 0.258819
vt 24.9447 36.1875
vt 24.9447 48.1875
vt 23.375 48.1875
f 78/375/47 77/376/46 53/377/46 52/378/47 

vt 18.7005 36.1875
vn 0.991445 0 0.130526
vt 20.2702 36.1875
vt 20.2702 48.1875
vt 18.7005 48.1875
f 79/379/48 78/380/47 52/381/47 51/382/48 

vt 15.2622 48.1875
vt 13.8178 48.1875
vn 0.997859 0 0.0654031
vt 13.8178 36.1875
vt 15.2622 36.1875
f 51/383/48 50/384/49 80/385/49 79/386/48 

vt 28.187 36.1875
vt 28.187 48.1875
f 63/75/5 80/387/5 50/388/5 49/72/5 

vt -73.225 7.6875
vt -79.9282 7.6875
vt -79.9282 0
vt -73.225 0
f 34/389/12 31/390/12 33/391/12 36/392/12 

usemtl _Color_M00_1
vt 41.6875 0
vt 41.6875 68.625
f 43/76/4 45/393/4 47/394/4 42/74/4 

vt -103 68.625
f 45/82/3 44/76/3 46/74/3 47/395/3 

usemtl FrontColor
v 73.1805 61.48 -68.3242
vt 13.6992 61.48
vn 1 4.23285e-13 3.06289e-28
v 73.1805 62.237 -67.8184
vt 13.1934 62.237
v 73.1805 62.9215 -67.2181
vt 12.5931 62.9215
v 73.1805 63.5217 -66.5336
vt 11.9086 63.5217
v 73.1805 64.0275 -65.7766
vt 11.1516 64.0275
v 73.1805 64.4302 -64.9601
vt 10.3351 64.4302
v 73.1805 64.7228 -64.098
vt 9.47302 64.7228
vt 8.5801 64.9005
vt 7.67164 58
vt 14.6316 58
v 73.1805 58.9085 -69.1971
vt 14.5721 58.9085
v 73.1805 59.8014 -69.0195
vt 14.3945 59.8014
v 73.1805 60.6635 -68.7268
vt 14.1018 60.6635
f 151/396/50 152/397/50 153/398/50 154/399/50 155/400/50 156/401/50 157/402/50 29/403/50 21/63/50 19/404/50 18/405/50 158/406/50 159/407/50 160/408/50 

vt 73.1805 44.4183
vn 2.57679e-13 -0.608761 0.793353
vt 73.1805 43.5079
vn 2.11642e-13 -0.5 0.866025
v 80.1405 61.48 -68.3242
vt 80.1405 43.5079
v 80.1405 62.237 -67.8184
vt 80.1405 44.4183
f 152/409/51 151/410/52 161/411/52 162/412/51 

vt 73.1805 49.0807
vt 73.1805 48.1703
vn 1.61984e-13 -0.382683 0.92388
v 80.1405 60.6635 -68.7268
vt 80.1405 48.1703
vt 80.1405 49.0807
f 151/413/52 160/414/53 163/415/53 161/416/52 

vt 73.1805 52.9112
vt 73.1805 52.0008
vn 1.09554e-13 -0.258819 0.965926
v 80.1405 59.8014 -69.0195
vt 80.1405 52.0008
vt 80.1405 52.9112
f 160/417/53 159/418/54 164/419/54 163/420/53 

vt 73.1805 55.8441
vt 73.1805 54.9337
vn 5.52498e-14 -0.130526 0.991445
v 80.1405 58.9085 -69.1971
vt 80.1405 54.9337
vt 80.1405 55.8441
f 159/421/54 158/422/55 165/423/55 164/424/54 

vt 73.1805 57.8293
vt 73.1805 56.9189
vn 2.76842e-14 -0.0654031 0.997859
vt 80.1405 56.9189
vt 80.1405 57.8293
f 158/425/55 18/426/56 17/427/56 165/428/55 

vt -13.1934 62.237
vn -1 -4.23285e-13 -3.06289e-28
vt -13.6992 61.48
vt -14.1018 60.6635
vt -14.3945 59.8014
vt -14.5721 58.9085
vt -14.6316 58
vt -7.67164 58
vt -8.5801 64.9005
v 80.1405 64.7228 -64.098
vt -9.47302 64.7228
v 80.1405 64.4302 -64.9601
vt -10.3351 64.4302
v 80.1405 64.0275 -65.7766
vt -11.1516 64.0275
v 80.1405 63.5217 -66.5336
vt -11.9086 63.5217
v 80.1405 62.9215 -67.2181
vt -12.5931 62.9215
f 162/429/57 161/430/57 163/431/57 164/432/57 165/433/57 17/434/57 20/435/57 26/53/57 30/436/57 166/437/57 167/438/57 168/439/57 169/440/57 170/441/57 

f 17/29/6 8/31/6 20/34/6

f 7/1/6 20/34/6 8/31/6

f 11/6/6 20/34/6 7/1/6

vt 73.1805 4.24622
vt 73.1805 3.3358
vn 4.08862e-13 -0.965926 0.258819
vt 80.1405 3.3358
vt 80.1405 4.24622
f 29/442/9 157/443/58 166/444/58 30/445/9 

vt 73.1805 11.8342
vt 73.1805 10.9238
vn 3.91064e-13 -0.92388 0.382683
vt 80.1405 10.9238
vt 80.1405 11.8342
f 157/446/58 156/447/59 167/448/59 166/449/58 

vt 73.1805 19.2275
vt 73.1805 18.3171
vn 3.66575e-13 -0.866025 0.5
vt 80.1405 18.3171
vt 80.1405 19.2275
f 156/450/59 155/451/60 168/452/60 167/453/59 

vt 73.1805 26.2995
vt 73.1805 25.3891
vn 3.35814e-13 -0.793353 0.608761
vt 80.1405 25.3891
vt 80.1405 26.2995
f 155/454/60 154/455/61 169/456/61 168/457/60 

vt 73.1805 32.9294
vt 73.1805 32.019
vn 2.99308e-13 -0.707107 0.707107
vt 80.1405 32.019
vt 80.1405 32.9294
f 154/458/61 153/459/62 170/460/62 169/461/61 

vt 73.1805 39.0037
vt 73.1805 38.0932
vt 80.1405 38.0932
vt 80.1405 39.0037
f 153/462/62 152/463/51 162/464/51 170/465/62 

