# Alias OBJ Model File
# Exported from SketchUp, (c) 2000-2012 Trimble Navigation Limited
# File units = inches

mtllib Wall with hole量產6.mtl

g Mesh1 __ Model

usemtl FrontColor
v 203.313 0 -0
vt 203.313 0
vn 0 0 1
v 130.327 62.6457 -0
vt 130.327 62.6457
v 0 0 -0
vt 0 0
f 1/1/1 2/2/1 3/3/1

v 203.313 155.688 -0
vt 203.313 155.688
f 2/2/1 1/1/1 4/4/1

vn 1 0 -0
v 203.313 0 -57.5625
vt 57.5625 0
v 203.313 155.688 -57.5625
vt 57.5625 155.688
vt 0 155.688
f 1/3/2 5/5/2 6/6/2 4/7/2 

vn 0 -1 -0
v 0 0 -57.5625
vt 0 57.5625
vt -203.313 57.5625
vt -203.313 0
f 3/3/3 7/8/3 5/9/3 1/10/3 

vt -57.5625 0
vn -1 0 -0
v 0 155.688 -0
v 0 155.688 -57.5625
vt -57.5625 155.688
f 7/11/4 3/3/4 8/7/4 9/12/4 

v 90.3928 89.2782 -0
vt 90.3928 89.2782
f 3/3/1 10/13/1 8/7/1

f 10/13/1 3/3/1 2/2/1

v 86.1854 82.9695 -15.343
vt -45.8687 -0.342037
vn 0.497411 0.745836 -0.443071
vt -60.1241 9.12862
vt -86.6857 -30.8524
v 126.119 56.337 -15.343
vt -72.4304 -40.323
f 11/14/5 10/15/5 2/16/5 12/17/5 

v 110.061 118.77 -36.6104
vt 36.6104 159.878
vn 0.831954 -0.554844 -5.57579e-16
v 120.101 133.823 -0
vt -8.04919e-14 177.972
vt -6.05817e-14 124.429
vt 15.343 116.846
f 13/18/6 14/19/6 10/20/6 11/21/6 

v 149.995 92.1371 -36.6104
vt 72.4304 -40.323
vn -0.497411 -0.745836 0.443071
v 160.034 107.19 -0
vt 106.446 -17.7248
vt 79.8839 22.2562
vt 45.8687 -0.342037
f 15/22/7 16/23/7 14/24/7 13/25/7 

vt -15.343 116.846
vn -0.831954 0.554844 6.81486e-16
vt 1.06756e-13 124.429
vt 1.3109e-13 177.972
vt -36.6104 159.878
f 12/26/8 2/27/8 16/28/8 15/29/8 

vt 160.034 107.19
f 2/2/1 4/4/1 16/30/1

vt 120.101 133.823
f 16/30/1 4/4/1 14/31/1

f 8/7/1 14/31/1 4/4/1

f 8/7/1 10/13/1 14/31/1

vn 0 1 -0
vt 203.313 57.5625
f 9/8/9 8/3/9 4/1/9 6/32/9 

vn 0 0 -1
vt -203.313 155.688
f 5/10/10 7/3/10 9/7/10 6/33/10 

vt 87.1746 74.1797
vn 0.245836 0.368615 0.896486
vt 125.687 45.5297
vt 154.337 84.0417
vt 115.825 112.692
f 11/34/11 12/35/11 15/36/11 13/37/11 

