# Alias OBJ Model File
# Exported from SketchUp, (c) 2000-2012 Trimble Navigation Limited
# File units = inches

mtllib Wall with hole量產1.mtl

g Mesh1 __ Model

usemtl FrontColor
v 203.313 0 -0
vt 0 0
vn 1 0 -0
v 203.313 0 -57.5625
vt 57.5625 0
v 203.313 155.688 -57.5625
vt 57.5625 155.688
v 203.313 155.688 -0
vt 0 155.688
f 1/1/1 2/2/1 3/3/1 4/4/1 

v 0 0 -0
vn 0 -1 -0
v 0 0 -57.5625
vt 0 57.5625
vt -203.313 57.5625
vt -203.313 0
f 5/1/2 6/5/2 2/6/2 1/7/2 

vt -57.5625 0
vn -1 0 -0
v 0 155.688 -0
v 0 155.688 -57.5625
vt -57.5625 155.688
f 6/8/3 5/1/3 7/4/3 8/9/3 

vn 0 0 1
v 23.5096 89.6325 -0
vt 23.5096 89.6325
f 5/1/4 9/10/4 7/4/4

v 63.4434 63 -0
vt 63.4434 63
f 9/10/4 5/1/4 10/11/4

vt 203.313 155.688
f 5/1/4 4/12/4 10/11/4

vt 203.313 0
f 4/12/4 5/1/4 1/13/4

v 90.0759 102.934 -0
vt 90.0759 102.934
f 10/11/4 4/12/4 11/14/4

v 50.1421 129.566 -0
vt 50.1421 129.566
f 11/14/4 4/12/4 12/15/4

f 7/4/4 12/15/4 4/12/4

f 7/4/4 9/10/4 12/15/4

v 50.1421 129.566 -33.4666
vt 33.4666 135.614
vn 0.831954 -0.554844 -1.40322e-17
vt -8.45728e-16 135.614
vt -3.96527e-16 87.6143
v 23.5096 89.6325 -33.4666
vt 33.4666 87.6143
f 13/16/5 12/17/5 9/18/5 14/19/5 

v 90.0759 102.934 -33.4666
vt -33.4666 -17.8268
vn -0.554844 -0.831954 7.53072e-16
vt 1.22257e-13 -17.8268
vt 6.80563e-14 30.1732
vt -33.4666 30.1732
f 15/20/6 11/21/6 12/22/6 13/23/6 

v 63.4434 63 -33.4666
vt -33.4666 87.6143
vn -0.831954 0.554844 3.23662e-16
vt 2.46819e-14 87.6143
vt 3.50429e-14 135.614
vt -33.4666 135.614
f 16/24/7 10/25/7 11/26/7 15/27/7 

vt 33.4666 30.1732
vn 0.554844 0.831954 2.10484e-17
vt 8.91851e-16 30.1732
vt 2.40676e-15 -17.8268
vt 33.4666 -17.8268
f 14/28/8 9/29/8 10/30/8 16/31/8 

f 14/10/4 16/11/4 15/14/4 13/15/4 

vn 0 1 -0
vt 203.313 57.5625
f 8/5/9 7/1/9 4/13/9 3/32/9 

vn 0 0 -1
vt -203.313 155.688
f 2/7/10 6/1/10 8/4/10 3/33/10 

