# Alias OBJ Model File
# Exported from SketchUp, (c) 2000-2012 Trimble Navigation Limited
# File units = inches

mtllib Wall with hole量產7.mtl

g Mesh1 __ Model

usemtl FrontColor
v 203.313 0 -0
vt 203.313 0
vn 0 0 1
v 135.096 99.6886 -0
vt 135.096 99.6886
v 0 0 -0
vt 0 0
f 1/1/1 2/2/1 3/3/1

v 203.313 155.688 -0
vt 203.313 155.688
f 2/2/1 1/1/1 4/4/1

vn 1 0 -0
v 203.313 0 -57.5625
vt 57.5625 0
v 203.313 155.688 -57.5625
vt 57.5625 155.688
vt 0 155.688
f 1/3/2 5/5/2 6/6/2 4/7/2 

vn 0 -1 -0
v 0 0 -57.5625
vt 0 57.5625
vt -203.313 57.5625
vt -203.313 0
f 3/3/3 7/8/3 5/9/3 1/10/3 

vt -57.5625 0
vn -1 0 -0
v 0 155.688 -0
v 0 155.688 -57.5625
vt -57.5625 155.688
f 7/11/4 3/3/4 8/7/4 9/12/4 

v 96.2142 71.5427 -0
vt 96.2142 71.5427
f 10/13/1 8/7/1 3/3/1

v 67.5703 111.113 -0
vt 67.5703 111.113
f 8/7/1 10/13/1 11/14/1

v 63.6945 116.467 -34.9813
vt 34.9813 56.9944
vn 0.810042 0.586372 -1.19484e-15
vt -9.96688e-14 50.3846
vt -1.4192e-13 1.53521
v 91.351 78.2609 -43.8933
vt 43.8933 9.82894
f 12/15/5 11/16/5 10/17/5 13/18/5 

v 102.576 144.613 -34.9813
vt 1.83432 173.793
vn 0.576177 -0.795957 -0.185667
v 106.452 139.259 -0
vt -32.6498 164.948
vt -20.7244 118.453
vt 13.7597 127.298
f 14/19/6 15/20/6 11/21/6 12/22/6 

v 130.233 106.407 -43.8933
vt -43.8933 9.82894
vn -0.810042 -0.586372 1.30477e-15
vt 2.17605e-13 1.53521
vt 1.71467e-13 50.3846
vt -34.9813 56.9944
f 16/23/7 2/24/7 15/25/7 14/26/7 

vt -13.7597 127.298
vn -0.576177 0.795957 0.185667
vt 29.5097 116.2
vt 41.4351 162.695
vt -1.83432 173.793
f 13/27/8 10/28/8 2/29/8 16/30/8 

f 3/3/1 2/2/1 10/13/1

vt 95.629 72.3224
vn 0.10887 -0.150398 0.982613
vt 134.275 100.792
vt 105.805 139.438
vt 67.1593 110.968
f 13/31/9 16/32/9 14/33/9 12/34/9 

vt 106.452 139.259
f 2/2/1 4/4/1 15/35/1

f 8/7/1 15/35/1 4/4/1

f 8/7/1 11/14/1 15/35/1

vn 0 1 -0
vt 203.313 57.5625
f 9/8/10 8/3/10 4/1/10 6/36/10 

vn 0 0 -1
vt -203.313 155.688
f 5/10/11 7/3/11 9/7/11 6/37/11 

