# Alias OBJ Model File
# Exported from SketchUp, (c) 2000-2012 Trimble Navigation Limited
# File units = inches

mtllib Wall with hole量產8.mtl

g Mesh1 __ Model

usemtl FrontColor
v 203.313 0 -57.5625
vt -203.313 0
vn 0 0 -1
v 0 0 -57.5625
vt 0 0
v 0 155.688 -57.5625
vt 0 155.688
v 203.313 155.688 -57.5625
vt -203.313 155.688
f 1/1/1 2/2/1 3/3/1 4/4/1 

v 0 0 -0
vn 0 -1 -0
vt 0 57.5625
vt -203.313 57.5625
v 203.313 0 -0
f 5/2/2 2/5/2 1/6/2 6/1/2 

vt -57.5625 0
vn -1 0 -0
v 0 155.688 -0
vt -57.5625 155.688
f 2/7/3 5/2/3 7/3/3 3/8/3 

vn 0 0 1
v 85.0114 88.8066 -0
vt 85.0114 88.8066
f 5/2/4 8/9/4 7/3/4

v 123.716 59.5258 -0
vt 123.716 59.5258
f 8/9/4 5/2/4 9/10/4

vt 203.313 0
f 6/11/4 9/10/4 5/2/4

v 159.943 100.856 -0
vt 159.943 100.856
f 9/10/4 6/11/4 10/12/4

v 203.313 155.688 -0
vt 203.313 155.688
f 10/12/4 6/11/4 11/13/4

vn 1 0 -0
vt 57.5625 0
vt 57.5625 155.688
f 6/2/5 1/14/5 4/15/5 11/3/5 

vn 0 1 -0
vt 203.313 57.5625
f 3/5/6 7/2/6 11/11/6 4/16/6 

v 121.238 130.136 -0
vt 121.238 130.136
f 7/3/4 12/17/4 11/13/4

f 7/3/4 8/9/4 12/17/4

v 107.082 119.964 -30.1942
vt 11.4397 163.126
vn 0.745681 -0.653615 -0.12941
vt -20.7305 176.567
vt -14.5361 121.958
v 81.7238 86.4442 -7.012
vt -7.06518 118.836
f 13/18/7 12/19/7 8/20/7 14/21/7 

v 142.874 88.5903 -36.4059
vt 69.5326 -27.3808
vn -0.52829 -0.698324 0.482963
vt 107.92 -10.2451
vt 81.8038 30.6623
vt 49.9666 16.4504
f 15/22/8 10/23/8 12/24/8 13/25/8 

v 117.516 55.0707 -13.2237
vt 7.06518 118.836
vn -0.745681 0.653615 0.12941
vt 21.1542 124.723
vt 27.3487 179.332
vt -11.4397 163.126
f 16/26/9 9/27/9 10/28/9 15/29/9 

vt -49.9666 16.4504
vn 0.52829 0.698324 -0.482963
vt -57.3602 19.7508
vt -83.4759 -21.1566
vt -69.5326 -27.3808
f 14/30/10 8/31/10 9/32/10 16/33/10 

vt 76.9712 74.4129
vn 0.406042 0.291771 0.866025
vt 112.016 41.6122
vt 144.816 76.6566
vt 109.772 109.457
f 14/34/11 16/35/11 15/36/11 13/37/11 

f 10/12/4 11/13/4 12/17/4

