# Alias OBJ Model File
# Exported from SketchUp, (c) 2000-2012 Trimble Navigation Limited
# File units = inches

mtllib Wall with hole量產5.mtl

g Mesh1 __ Model

usemtl FrontColor
v 203.313 0 -0
vt 0 0
vn 1 0 -0
v 203.313 0 -57.5625
vt 57.5625 0
v 203.313 155.688 -57.5625
vt 57.5625 155.688
v 203.313 155.688 -0
vt 0 155.688
f 1/1/1 2/2/1 3/3/1 4/4/1 

v 0 0 -0
vn 0 -1 -0
v 0 0 -57.5625
vt 0 57.5625
vt -203.313 57.5625
vt -203.313 0
f 5/1/2 6/5/2 2/6/2 1/7/2 

vt -57.5625 0
vn -1 0 -0
v 0 155.688 -0
v 0 155.688 -57.5625
vt -57.5625 155.688
f 6/8/3 5/1/3 7/4/3 8/9/3 

vn 0 0 1
v 113.235 88.7202 -0
vt 113.235 88.7202
f 5/1/4 9/10/4 7/4/4

v 159.685 76.6198 -0
vt 159.685 76.6198
f 9/10/4 5/1/4 10/11/4

vt 203.313 0
f 1/12/4 10/11/4 5/1/4

vt 203.313 155.688
f 10/11/4 1/12/4 4/13/4

v 171.785 123.07 -0
vt 171.785 123.07
f 10/11/4 4/13/4 11/14/4

v 125.335 135.17 -0
vt 125.335 135.17
f 11/14/4 4/13/4 12/15/4

f 7/4/4 12/15/4 4/13/4

f 7/4/4 9/10/4 12/15/4

v 125.335 135.17 -36.75
vt 36.75 162.4
vn 0.967704 -0.252091 1.12006e-15
vt 1.45068e-13 162.4
vt 1.31062e-13 114.4
v 113.235 88.7202 -36.75
vt 36.75 114.4
f 13/16/5 12/17/5 9/18/5 14/19/5 

v 171.785 123.07 -36.75
vt -36.75 -135.212
vn -0.252091 -0.967704 -1.45633e-16
vt -9.92405e-14 -135.212
vt -7.24064e-14 -87.2122
vt -36.75 -87.2122
f 15/20/6 11/21/6 12/22/6 13/23/6 

v 159.685 76.6198 -36.75
vt -36.75 114.4
vn -0.967704 0.252091 -1.52906e-15
vt -2.52317e-13 114.4
vt -2.71437e-13 162.4
vt -36.75 162.4
f 16/24/7 10/25/7 11/26/7 15/27/7 

vt 36.75 -87.2122
vn 0.252091 0.967704 3.28916e-16
vt 1.47743e-13 -87.2122
vt 2.08348e-13 -135.212
vt 36.75 -135.212
f 14/28/8 9/29/8 10/30/8 16/31/8 

f 14/10/4 16/11/4 15/14/4 13/15/4 

vn 0 1 -0
vt 203.313 57.5625
f 8/5/9 7/1/9 4/12/9 3/32/9 

vn 0 0 -1
vt -203.313 155.688
f 2/7/10 6/1/10 8/4/10 3/33/10 

